<?xml version="1.0" encoding="utf-8"?>
<!-- Generator: Adobe Illustrator 23.0.0, SVG Export Plug-In . SVG Version: 6.00 Build 0)  -->
<svg version="1.1" id="Layer_1" xmlns="http://www.w3.org/2000/svg" xmlns:xlink="http://www.w3.org/1999/xlink" x="0px" y="0px"
	 width="978px" height="713.7px" viewBox="0 0 978 713.7" style="enable-background:new 0 0 978 713.7;" xml:space="preserve">
<style type="text/css">
	.st0{fill-rule:evenodd;clip-rule:evenodd;fill:#3E73B0;}
	.st1{fill-rule:evenodd;clip-rule:evenodd;}
</style>
<g>
	<path class="st0" d="M328.6,152.7v65l17.2,19.1h-13.4c-1.9,1.9-3.8,1.9-3.8,3.8v105.2l17.2,3.8v-97.5h19.1c1.9,0,1.9,0,1.9-1.9V233
		l-24.9-28.7v-91.8c0,0,0-1.9-1.9-1.9h-40.2c-1.9,0-1.9,1.9-3.8,3.8v38.2l-32.5-38.2h-3.8L154.5,233v15.3c0,3.8,1.9,3.8,3.8,3.8
		h17.2V342h17.2V240.6c-1.9-3.8-1.9-3.8-3.8-3.8h-13.4l84.1-97.5h1.9c15.3,17.2,30.6,34.4,44,51.6c1.9,0,3.8,0,5.7-1.9v-65h17.2
		L328.6,152.7L328.6,152.7L328.6,152.7z M575.2,349.6V106.8c0-5.7,0-7.6,1.9-11.5c3.8-1.9,5.7-3.8,9.6-3.8h200.8
		c3.8,1.9,7.6,3.8,9.6,5.7c1.9,1.9,1.9,3.8,3.8,7.6v240.9l-15.3-1.9v-239h-195v242.8L575.2,349.6z"/>
	<path class="st0" d="M613.5,137.4h28.7c5.7,1.9,5.7,3.8,7.6,7.6v30.6h-13.4l1.9-26.8h-24.9L613.5,137.4L613.5,137.4z M667,137.4
		h30.6c3.8,1.9,5.7,3.8,5.7,7.6v30.6h-11.5v-26.8H667L667,137.4L667,137.4z M724.4,137.4h28.7c5.7,1.9,5.7,3.8,7.6,7.6v30.6h-11.5
		v-26.8h-24.9V137.4z M613.5,204.3h28.7c5.7,1.9,5.7,1.9,7.6,7.6v30.6h-13.4l1.9-26.8h-24.9L613.5,204.3L613.5,204.3z M667,204.3
		h30.6c3.8,1.9,5.7,1.9,5.7,7.6v30.6h-11.5v-26.8H667L667,204.3L667,204.3z M724.4,204.3h28.7c5.7,1.9,5.7,1.9,7.6,7.6v30.6h-11.5
		v-26.8h-24.9V204.3z M613.5,267.4h28.7c5.7,1.9,5.7,3.8,7.6,7.6v30.6h-13.4l1.9-26.8h-24.9L613.5,267.4L613.5,267.4z M667,267.4
		h30.6c3.8,1.9,5.7,3.8,5.7,7.6v30.6h-11.5v-26.8H667L667,267.4L667,267.4z M724.4,267.4h28.7c5.7,1.9,5.7,3.8,7.6,7.6v30.6h-11.5
		v-26.8h-24.9V267.4z M267.4,244.4H296c5.7,0,7.6,1.9,7.6,7.6v30.6h-11.5v-26.8h-24.9V244.4z M211.9,244.4h28.7
		c5.7,0,5.7,1.9,7.6,7.6v88h-11.5v-84.1h-24.9V244.4z M382.1,351.5v-306c1.9-3.8,1.9-5.7,3.8-9.6c1.9-1.9,5.7-3.8,7.6-3.8h147.2
		c3.8,0,7.6,1.9,9.6,3.8c1.9,3.8,1.9,5.7,3.8,9.6v306l-15.3,1.9V45.6h-21v309.8h-9.6V45.6h-21v315.5h-7.6V45.6h-21v315.5H449V45.6
		h-21v309.8h-9.6V45.6h-21v307.9L382.1,351.5L382.1,351.5z"/>
	<path class="st0" d="M737.8,351.5c-30.6,0-68.8,3.8-91.8,7.6c-22.9,3.8-80.3,13.4-101.3,13.4c-21,1.9-45.9,3.8-61.2,3.8
		c-13.4,0-38.2-1.9-59.3-3.8c-21,0-78.4-9.6-101.3-13.4c-22.9-3.8-61.2-7.6-91.8-7.6c-32.5,0-68.8,9.6-68.8,9.6v17.2
		c0,0,42.1-13.4,68.8-13.4c24.9,0,70.8,5.7,88,7.6c15.3,1.9,59.3,9.6,101.3,13.4c30.6,3.8,57.4,3.8,63.1,3.8c7.6,0,34.4,0,65-3.8
		c42.1-3.8,86.1-11.5,101.3-13.4c17.2-1.9,61.2-7.6,88-7.6c26.8,0,68.8,13.4,68.8,13.4v-17.2C806.6,361.1,770.3,351.5,737.8,351.5z"
		/>
	<path class="st1" d="M41.3,453.1v21.1h24v50.2h27.3v-50.2h24v-21.1H41.3z M148.4,447.6h-25.7v76.8h25.7v-30.8c0-3-0.1-7.2,4.6-7.2
		c4.7,0,4.6,4.3,4.6,7.2v30.8h25.7v-37.1c0-11.9-7.9-17.5-18.6-17.5c-3.7,0-11,0.8-16.2,7.9V447.6z M251.1,503.9v-4.6
		c0-24.1-17.1-29.5-30.2-29.5c-18,0-30.9,10.3-30.9,27c0,11.2,5.1,28.8,33.1,28.8c7.3,0,15.4-0.7,24-3.1v-13.9
		c-6.5,2.2-12.3,3.7-18.7,3.7c-10.7,0-12.7-4.7-13-8.5H251.1z M215.5,493v-1c0-8.8,4.8-9.5,6.6-9.5c2.9,0,6.6,1.9,6.6,9.6v0.9
		L215.5,493L215.5,493L215.5,493z M288.5,453.1v71.3h27.3v-24.9h6.1c3,0,7.9,0.8,8.9,7l2.7,17.8H362l-4.7-20.7
		c-2.1-9.6-9.3-12.3-14.1-13v-0.2c9.3-1.5,16.7-8,16.7-18.3c0-18-18.6-19.1-28.7-19.1L288.5,453.1L288.5,453.1L288.5,453.1z
		 M314.6,469h7.1c3.1,0,10.7,0.2,10.7,7.4c0,8-8.7,7.8-11.1,7.8h-6.7L314.6,469L314.6,469L314.6,469z M426.5,503.9v-4.6
		c0-24.1-17.1-29.5-30.2-29.5c-18,0-30.9,10.3-30.9,27c0,11.2,5.1,28.8,33.1,28.8c7.3,0,15.4-0.7,24-3.1v-13.9
		c-6.5,2.2-12.3,3.7-18.7,3.7c-10.7,0-12.7-4.7-13-8.5H426.5L426.5,503.9z M390.8,493v-1c0-8.8,4.8-9.5,6.6-9.5
		c2.9,0,6.6,1.9,6.6,9.6v0.9L390.8,493L390.8,493L390.8,493z M467.3,524.4h23.4v-34c0-16-15.1-20.6-29.3-20.6
		c-7.5,0-17.1,1.1-25.2,3.3v14c9.5-4,18.2-4.2,18.6-4.2c5.2,0,12.4,0.9,12.4,6.5v1.6h-3.6c-13.4,0-34,0.3-34,18.6
		c0,8.9,5.9,16,18.6,16c5.7,0,13.4-0.9,18.5-7.8h0.4V524.4z M467.3,501.2v3c0,6.1-3.6,8.6-7.1,8.6c-3.6,0-6-2.1-6-5.1
		c0-6.8,8.1-6.4,11.8-6.4L467.3,501.2L467.3,501.2z M499.5,447.7v76.7h25.7v-76.7L499.5,447.7L499.5,447.7z M565.9,453.1v71.3h63
		v-16.8h-35.7v-11.1h33.4v-16.3h-33.4v-10.3h34.9v-16.8H565.9L565.9,453.1z M635.9,522.5c9.1,2.6,17.3,3.1,21.7,3.1
		c26.4,0,30.7-12.4,30.7-19.2c0-13.5-12.9-15.5-22.1-16.4c-5.6-0.5-8.3-1.1-8.3-3.3c0-3.3,5.1-3.6,8.9-3.6c5.3,0,11.2,1,16.8,2.9
		V472c-8.3-1.8-14.4-2.2-19.3-2.2c-23.5,0-30.5,8.5-30.5,18.1c0,11.8,9.9,15,20.9,16.9c3.4,0.6,9.5,0.3,9.5,3.8
		c0,2.1-2.8,3.6-9.4,3.6c-7.5,0-14.5-2.3-19-4.3L635.9,522.5L635.9,522.5L635.9,522.5z M690,471v15.4h9.1v18.4
		c0,9.5,2.2,20.8,21.3,20.8c8.2,0,13.2-1.8,16-2.8v-15.4c-3,0.8-4.2,1-5.7,1c-5.9,0-5.9-5.5-5.9-7v-15.1h11.6V471h-11.6v-20.7
		l-25.7,7.6v13L690,471L690,471z M776.3,524.4h23.4v-34c0-16-15.1-20.6-29.3-20.6c-7.5,0-17.1,1.1-25.2,3.3v14
		c9.5-4,18.2-4.2,18.6-4.2c5.2,0,12.4,0.9,12.4,6.5v1.6h-3.6c-13.4,0-34,0.3-34,18.6c0,8.9,5.9,16,18.6,16c5.7,0,13.4-0.9,18.5-7.8
		h0.4L776.3,524.4L776.3,524.4L776.3,524.4z M776.3,501.2v3c0,6.1-3.6,8.6-7.1,8.6c-3.6,0-6-2.1-6-5.1c0-6.8,8.1-6.4,11.8-6.4
		L776.3,501.2L776.3,501.2z M803.4,471v15.4h9.1v18.4c0,9.5,2.2,20.8,21.3,20.8c8.1,0,13.2-1.8,16-2.8v-15.4c-3,0.8-4.2,1-5.7,1
		c-5.9,0-5.9-5.5-5.9-7v-15.1h11.6V471h-11.6v-20.7l-25.7,7.6v13L803.4,471L803.4,471z M913.3,503.9v-4.6
		c0-24.1-17.1-29.5-30.2-29.5c-18,0-30.9,10.3-30.9,27c0,11.2,5.1,28.8,33.1,28.8c7.3,0,15.4-0.7,24-3.1v-13.9
		c-6.5,2.2-12.3,3.7-18.7,3.7c-10.7,0-12.7-4.7-13-8.5H913.3L913.3,503.9z M877.7,493v-1c0-8.8,4.8-9.5,6.6-9.5
		c2.9,0,6.6,1.9,6.6,9.6v0.9L877.7,493L877.7,493L877.7,493z M205.6,586.7v21.1h24V658H257v-50.2h24v-21.1H205.6z M338.7,637.5v-4.6
		c0-24.1-17.1-29.5-30.2-29.5c-18,0-30.9,10.3-30.9,27c0,11.2,5.1,28.8,33.1,28.8c7.3,0,15.4-0.7,24-3.1v-13.9
		c-6.5,2.2-12.3,3.7-18.7,3.7c-10.7,0-12.7-4.7-13-8.5L338.7,637.5L338.7,637.5z M303,626.6v-1c0-8.8,4.8-9.5,6.6-9.5
		c2.9,0,6.6,1.9,6.6,9.6v0.9L303,626.6L303,626.6L303,626.6z M345.5,581.3V658h25.7v-76.7H345.5z M439,637.5v-4.6
		c0-24.1-17.1-29.5-30.2-29.5c-18,0-30.9,10.3-30.9,27c0,11.2,5.1,28.8,33.1,28.8c7.3,0,15.4-0.7,24-3.1v-13.9
		c-6.5,2.2-12.3,3.7-18.7,3.7c-10.7,0-12.7-4.7-13-8.5L439,637.5L439,637.5z M403.4,626.6v-1c0-8.8,4.8-9.5,6.6-9.5
		c2.9,0,6.6,1.9,6.6,9.6v0.9L403.4,626.6L403.4,626.6L403.4,626.6z M446.5,678c4.8,1.5,13.7,3.6,27.8,3.6c32,0,34-19.7,34-31.3
		v-45.6h-24.2v9.9h-0.4c-2.7-8-10.6-11.1-17.7-11.1c-12.9,0-23,9.7-23,28.1c0,19.3,11.3,26.5,22.8,26.5c7.3,0,13.5-3.2,17.7-8.9v2.1
		c0,5.2-1.3,15-16.8,15c-7.1,0-14-1.9-20.2-5.5L446.5,678L446.5,678L446.5,678z M476.9,619.7c5.4,0,6.5,5,6.5,11s-1.1,11-6.5,11
		c-5.4,0-6.5-5-6.5-11S471.5,619.7,476.9,619.7z M578.9,604.6h-25.7v30.9c0,2.9,0.1,7.2-4.6,7.2c-4.6,0-4.5-4.3-4.5-7.2v-30.9h-25.7
		v37.2c0,3.8,0.4,17.4,18.6,17.4c11.3,0,15.5-6.2,17.3-10.4h0.2v9.2h24.2L578.9,604.6L578.9,604.6L578.9,604.6z M589.1,658h25.7
		v-53.4h-25.7V658z M589.1,581.2V599h25.7v-17.8H589.1z M663.4,658h23.8v-77.6h-25.7v31.1c-3.8-5.4-9.5-8-16.3-8
		c-11.3,0-23.3,7.1-23.3,27c0,23.2,13.7,28.8,24.1,28.8c7.7,0,13.7-3.7,16.9-10.3h0.4L663.4,658L663.4,658L663.4,658z M655.8,641.9
		c-5.8,0-6.4-7.2-6.4-11.3c0-4.1,0.6-11.3,6.4-11.3c5.8,0,6.4,7.2,6.4,11.3C662.3,634.7,661.7,641.9,655.8,641.9z M755.1,637.5v-4.6
		c0-24.1-17.1-29.5-30.2-29.5c-18,0-30.9,10.3-30.9,27c0,11.2,5.1,28.8,33.1,28.8c7.3,0,15.4-0.7,24-3.1v-13.9
		c-6.5,2.2-12.3,3.7-18.7,3.7c-10.7,0-12.7-4.7-13-8.5L755.1,637.5L755.1,637.5z M719.4,626.6v-1c0-8.8,4.8-9.5,6.6-9.5
		c2.9,0,6.6,1.9,6.6,9.6v0.9L719.4,626.6L719.4,626.6z"/>
</g>
</svg>
