<?xml version="1.0" encoding="utf-8"?>
<!-- Generator: Adobe Illustrator 23.0.0, SVG Export Plug-In . SVG Version: 6.00 Build 0)  -->
<svg version="1.1" id="Layer_1" xmlns="http://www.w3.org/2000/svg" xmlns:xlink="http://www.w3.org/1999/xlink" x="0px" y="0px"
	 width="997.6px" height="708.8px" viewBox="0 0 997.6 708.8" style="enable-background:new 0 0 997.6 708.8;" xml:space="preserve"
	>
<style type="text/css">
	.st0{fill:#808285;}
	.st1{fill:#D31245;}
</style>
<path class="st0" d="M2484.8,1127.3l-5-12.8c3-2.5,3.3-4.1,3.3-6.9c0-4.7-3.4-7.7-8.9-7.7h-6.9v27.3h3.9v-12.3h4.7l4.9,12.2
	L2484.8,1127.3L2484.8,1127.3z M2471,1112v-8.6h2.6c3.7,0,5.3,1.6,5.4,4.2c0,2.3-1.2,4.5-5.4,4.5L2471,1112L2471,1112z"/>
<path class="st0" d="M949.4,519.7c-5.1,0-9.2-4.1-9.3-9.2c0-5.1,4.2-9.2,9.3-9.2c5.1,0,9.2,4.1,9.2,9.2
	C958.6,515.5,954.4,519.7,949.4,519.7 M949.4,502.4c-4.4,0-8.1,3.6-8.1,8c0,4.5,3.6,8.1,8.1,8.1c0,0,0,0,0,0c4.4,0,8-3.6,8-8
	c0,0,0,0,0,0C957.4,506,953.8,502.4,949.4,502.4 M462.7,424.5l-24.8,77L408,424.9h-7.7l35.9,94h3.4l25.7-82.8l26.1,82.8h3.4l35.8-94
	h-7.8l-29.5,76.5l-25.1-77L462.7,424.5z M561.6,424.9v93.3h45.6v-6h-38.4v-87.3L561.6,424.9z M620.6,424.9v93.3h45.6v-6h-38.4v-87.3
	L620.6,424.9z M678.9,518.1h7.2v-93.3h-7.2V518.1z M541.1,518.1h7.3v-93.3h-7.3V518.1z M735,424.4l-38.6,93.8h6.7l13.2-32.2h40.8
	l13.2,32.2h6.8l-38.5-93.8L735,424.4L735,424.4z M736.6,436.1l18,43.8h-35.9L736.6,436.1z M865.3,425l-35.5,43.3L794.3,425H787v93.1
	h7.2v-82.5h0.3l35.2,43.5l35.2-43.5h0.3v82.5h7.2V425H865.3z M932.3,440.1c-5.9-7.6-14.3-9.4-20.7-9.4c-11.2,0-19.6,7.7-19.6,17.8
	c0,24.8,44.3,13,44.3,45.6c0,14.3-11.9,25.5-27,25.5c-7.6,0-15.8-2.1-23.9-8.2v-8.5c9.1,8.6,16.3,10,23.5,10
	c11.1,0,19.6-8.1,19.6-18.6c0-26.5-44.3-14.9-44.3-45.6c0-13.8,12-24.7,26.8-24.7c7.5,0,17.1,3.1,21.4,8.2L932.3,440.1L932.3,440.1z
	 M167.2,425.1v93.2h47.9v-12h-34.5v-81.2L167.2,425.1z M223.7,425.1v93.2h47.9v-12h-34.5v-81.2L223.7,425.1z M280.3,425.1v93.2h54.2
	v-12h-40.8v-29h38.2v-12h-38.2v-28.2h39.5v-12L280.3,425.1z M403.2,518.4L386,474.8c10.3-8.5,11.4-14.2,11.3-23.6
	c-0.1-16.1-11.7-26.1-30.6-26.1h-23.5v93.3h13.4v-41.7c0,0,11.1,0,16,0l16.9,41.7L403.2,518.4L403.2,518.4L403.2,518.4z
	 M356.5,465.9v-29.3h8.6c13,0,18.2,5.3,18.3,14.1c0.1,7.8-4,15.2-18.3,15.2L356.5,465.9L356.5,465.9z M104.4,425.1v93.1h54v-12
	h-40.7v-28.9h38.1v-12h-38.1v-28.1h39.4v-12H104.4z M80.5,425.1l-4.7,5.1l-34.3,37.4v-42.5H28.1V518h13.4v-31.9l14.9-16.3l19.5,48.2
	h13.8v0l-4.9-12l-18.9-46.7l20.3-22.2l10.9-12L80.5,425.1z"/>
<path class="st1" d="M28.1,96.1v282h39.4V312l28.9-28.7l40.1,94.8h39.9l-53-125.8l37.2-41.2l72.2,167.1h15.1l54.1-129.2l55,129.2
	h14.9l82.5-190.2H414l-49.6,115.4l-48.1-115.4h-27.8l-48.5,115.4l-49.9-115.4h-52.3l-70.1,70V96.1H28.1z"/>
<g>
	<path d="M28.1,562.8h10c7.7,0,12.4,3,12.4,11.2c0,3-1,6.4-3.6,8c4.9,0.9,7.1,5.8,7.1,10.4c0,8.1-5.7,11.7-13.2,11.7H28.1
		L28.1,562.8L28.1,562.8z M36.1,580h1c3.9,0,5.9-1.2,5.9-5.4c0-4.2-2.4-5.3-5.8-5.3h-1L36.1,580L36.1,580z M36.1,597.6h1.7
		c4.3,0,8.1-0.5,8.1-5.9s-4.4-5.6-8.4-5.6h-1.3L36.1,597.6L36.1,597.6z M81.8,597.1h11.4v7H73.7v-41.4h8.1V597.1L81.8,597.1z
		 M119.6,595.4l-3.4,8.7h-8.5l16.1-42.5h6.3l15.7,42.5h-8.6l-3.2-8.7H119.6L119.6,595.4z M126.6,573.8h-0.1l-4.6,15h9.8L126.6,573.8
		L126.6,573.8z M191.2,573.7c-2.2-2.7-5.6-4.4-9.1-4.4c-7.7,0-12.2,7.1-12.2,14.3c0,7,4.6,13.9,12.1,13.9c3.5,0,6.9-1.8,9.2-4.4v9.6
		c-3,1.4-6,2.5-9.4,2.5c-11.6,0-20.2-10-20.2-21.4c0-11.7,8.3-22.1,20.4-22.1c3.2,0,6.4,0.9,9.2,2.4L191.2,573.7L191.2,573.7z
		 M232.9,562.8h9.9l-15.7,19.1l16.6,22.3h-10.4l-13.2-18.6H220v18.6h-8.1v-41.4h8.1v17.4h0.1L232.9,562.8L232.9,562.8z M292.5,562.8
		H304c12,0,20,8.9,20,20.7c0,11.6-8.2,20.6-20,20.6h-11.5L292.5,562.8z M300.5,597.1h1.3c9.9,0,13.8-5.5,13.8-13.7
		c0-9-4.6-13.7-13.8-13.7h-1.3L300.5,597.1L300.5,597.1z M351.3,604.1h-8.1v-41.4h8.1V604.1z M381,595.4l-3.4,8.7h-8.5l16.1-42.5
		h6.3l15.7,42.5h-8.6l-3.2-8.7H381L381,595.4z M388,573.8h-0.1l-4.6,15h9.8L388,573.8z M455.9,578.4h-0.1l-9.4,26.2h-2.8l-9.1-26.2
		h-0.1l-3.7,25.7h-8.1l7-42.5h5.7l10.2,27.3l9.8-27.3h5.8l6.2,42.5h-8.1L455.9,578.4L455.9,578.4z M504.7,605.2
		c-12.6,0-20.5-9.7-20.5-21.8c0-12.3,8.1-21.7,20.5-21.7c12.3,0,20.5,9.4,20.5,21.7C525.2,595.6,517.3,605.2,504.7,605.2
		L504.7,605.2z M504.7,569.6c-7.6,0-12.1,6.7-12.1,13.4c0,6.4,3.2,14.2,12.1,14.2c8.9,0,12.1-7.8,12.1-14.2
		C516.8,576.4,512.3,569.6,504.7,569.6z M544.5,561.7h5.8l21.8,28.9h0.1v-27.8h8.1v42.2h-5.8L552.6,576h-0.1v28.1h-8.1L544.5,561.7
		L544.5,561.7z M601.5,562.8H613c12,0,20,8.9,20,20.7c0,11.6-8.2,20.6-20,20.6h-11.5L601.5,562.8L601.5,562.8L601.5,562.8z
		 M609.5,597.1h1.3c9.9,0,13.8-5.5,13.8-13.7c0-9-4.6-13.7-13.8-13.7h-1.3V597.1z M711.4,604.1h-9.8l-10-16.7h-0.1v16.7h-8.1v-41.4
		h10.9c8.2,0,13.8,3.6,13.8,12.4c0,5.3-2.9,10.5-8.5,11.5L711.4,604.1z M691.5,581.8h1c4.4,0,7.6-1.3,7.6-6.4c0-5.1-3.2-6.1-7.5-6.1
		h-1.1L691.5,581.8L691.5,581.8z M737.5,569.8v9.1h12.8v7h-12.8v11.2h13.3v7h-21.4v-41.4h21.4v7L737.5,569.8L737.5,569.8z
		 M780,595.4l-3.4,8.7h-8.5l16.1-42.5h6.3l15.7,42.5h-8.6l-3.2-8.7H780z M787,573.8h-0.1l-4.6,15h9.8L787,573.8z M832,597.1h11.4v7
		H824v-41.4h8.1L832,597.1L832,597.1z M873.2,604.1h-8.1v-34.3h-8.3v-7h24.7v7h-8.3V604.1z M896,562.8h9.4l7.2,14.4l7.9-14.4h9.4
		l-13.1,22.4v19h-8.1v-19L896,562.8z"/>
</g>
</svg>
