<?xml version="1.0" encoding="utf-8"?>
<!-- Generator: Adobe Illustrator 23.0.0, SVG Export Plug-In . SVG Version: 6.00 Build 0)  -->
<svg version="1.1" id="Layer_1" xmlns="http://www.w3.org/2000/svg" xmlns:xlink="http://www.w3.org/1999/xlink" x="0px" y="0px"
	 width="1010.4px" height="709.2px" viewBox="0 0 1010.4 709.2" style="enable-background:new 0 0 1010.4 709.2;"
	 xml:space="preserve">
<style type="text/css">
	.st0{fill:#29ABE2;}
</style>
<path d="M93.4,319l-13.2,19.4L0.4,356.2H104l124.7-176.6l181.4,176.8L233.3,109L93.4,319z M848.5,318.6l-33.7-42v-135l-77.6-43.6
	l3.5,82.4L603.6,0L416.1,353.7l1.6,2.5L603.4,64.9l225.3,291.3h181.7L848.5,318.6z"/>
<path class="st0" d="M554.2,228.5l-0.5,48.5l62.8,0.5l0.7-85.4C591.4,192.5,559.7,207.1,554.2,228.5 M624.6,192.3l-0.7,85.2
	l62.8,0.5l0.5-48.5C683.5,209.2,654.2,194.8,624.6,192.3 M553.5,308.9l-0.2,48.2l62.8,0.7l0.5-66.3l-62.8-0.7L553.5,308.9z
	 M623.5,357.8l62.8,0.5l0.2-48l0.2-18l-62.8-0.7L623.5,357.8z M194.5,263.6l-0.2,35.1l45.9,0.5l0.5-61.9
	C221.8,237.5,198.5,247.9,194.5,263.6 M246.2,237.5l-0.5,61.6l45.9,0.5l0.2-35.1C289.4,249.6,267.9,239.2,246.2,237.5 M194.1,321.8
	l-0.2,34.9l45.9,0.5l0.5-48l-46.2-0.5V321.8z M245.3,357.1l45.9,0.5l0.5-34.9v-13.2l-46.2-0.5L245.3,357.1z M399.3,190.2
	l-155.4-74.8l160,215.8L399.3,190.2z M408.5,192.1l2.3,141.3L590,8.3L408.5,192.1z"/>
<path d="M110.7,557h752.6v11.5H110.7L110.7,557z M168,404.5c-1.6,1.2-3.2,2.5-4.6,4.2c-0.7,0.7-2.1,2.3-4.4,4.8
	c-1.8-1.8-3.5-3-5.1-3c-3.5,0-6.9,3.7-10.2,11.3c-2.1,5.5-4.2,11.3-6,16.9c-3.5,7.6-6.9,15-10.4,22.6c-4.6,9.5-6.9,17.3-6.9,23.5
	c0,3.2,0.5,6,1.6,8.5c4.2-2.5,7.8-6.7,10.6-12.5c1.2-2.1,3.2-7.4,6.2-15.5c1.4-3.7,3-7.4,5.3-11.3c1.8-3.2,4.2-6.9,6.9-10.9
	c2.1-3,4.2-6.2,6.2-9.2c2.8-3.9,5.3-7.4,7.6-9.9c0.9,3.7,1.4,7.4,1.8,10.9c0.2,3.5,0.5,9,0.5,16.6v3.9c0,6,0.2,11.3,0.5,16.2
	c0.2,4.8,0.9,9.2,1.8,13.4c4.6-0.5,8.5-3.2,12.2-7.8c2.1-2.8,5.1-6.9,9.2-12.9c3.5-3.9,7.2-8.5,10.9-13.6c3.5-4.8,6.9-9.7,10.6-14.5
	c0,4.8-0.7,10.4-2.3,17.1c-1.6,6.7-3,13.2-4.6,19.6c-1.4,6.5-2.3,12.2-2.3,17.3c0,2.8,0.2,5.5,0.7,8.1c0.5,2.5,1.2,5.1,2.3,7.6
	c3.7-3.7,6.5-10.9,8.5-21.5c1.2-8.1,2.5-16.4,3.7-24.5c1.2-6.2,2.5-12.5,3.9-19.2c1.4-6.7,2.1-12.7,2.1-18c0-4.2-0.5-8.1-1.2-11.8
	c-3.9,0.7-7.6,3.7-11.5,9c-2.8,4.4-5.5,9-8.3,13.4c-6,9.2-9.9,15-11.5,17.1c-4.8,6.2-9.7,11.1-14.5,14.1c0-11.3,0-19.9-0.2-25.9
	c0-5.8-0.5-12-1.4-18.7c-0.2-2.8-0.9-5.3-1.8-7.6c-1.2-3.2-2.8-5.1-4.4-5.8L168,404.5L168,404.5z"/>
<path class="st0" d="M261.7,430.8c7.4-7.2,15-10.9,23.1-10.9c2.8,0,5.5,0.5,8.1,1.4c2.5,0.9,5.3,2.1,7.8,3.9
	c4.4,3,7.8,6.7,10.4,11.1c2.5,4.4,3.7,8.8,3.7,13.6c0,1.2,0,2.3-0.2,3.7c-1.2,7.4-6.9,14.3-17.3,20.1c-9.5,5.3-18.5,8.1-26.8,8.1
	c-7.8,0-13.9-1.4-18-4.4c-4.2-3-6.2-7.4-6.2-12.9c0-3,0.5-6,1.4-9.2C250.2,445.5,255,437.5,261.7,430.8L261.7,430.8z M284.8,410.5
	c-7.6,0-15,2.5-22.2,7.4c-6.5,4.4-12.2,11.1-17.5,19.6c-5.8,9.5-8.8,18.5-8.8,26.5c0,3.9,0.7,7.6,2.3,10.9c1.4,3.2,3.9,6,6.9,8.1
	c3.2,2.1,6.5,3.7,9.7,4.6s6.7,1.4,10.2,1.4c5.8,0,12.5-1.2,19.9-3.7c5.3-1.8,11.5-4.6,18.5-8.1c5.8-3,10.2-6.9,13.4-12.2
	c2.8-4.8,4.2-10.4,4.2-16.4c0-6.2-1.6-12.2-4.6-18c-3-5.8-7.4-10.6-12.9-14.1C297.9,412.3,291.5,410.5,284.8,410.5L284.8,410.5z"/>
<path d="M341.8,461.7c-4.4,9-6.7,16.4-6.7,22.4c0,2.3,0.2,4.4,0.7,6.5c4.4-1.2,7.8-6.2,10.2-15.2c2.3-8.8,6-14.3,11.1-16.2
	c3.5-1.2,7.4-2.3,11.8-3c4.4-0.7,9-1.2,13.6-1.2c4.4,0,8.1,0.2,11.3,0.9c-1.8,5.5-3.9,10.9-5.8,16.2c-2.3,6.7-3.5,12.2-3.5,16.6
	c0.7,0,1.6,0.2,3,0.7c0.7,0.2,1.6,0.5,3,0.7c2.3-5.1,4.6-10.2,6.9-15.5c2.8-6.2,4.8-11.3,6.2-15.2c1.8-5.5,3.2-10.6,3.7-15.5
	c0-0.2,1.4-5.8,3.9-16.6c0.9-3.9,1.4-7.2,1.4-9.9c0-2.1-0.2-3.9-0.7-6h-6c-0.7,4.8-1.4,9.7-2.1,14.8c-2.1,11.8-6,18.2-11.5,19.4
	c-1.8,0.5-8.5,1.2-20.1,2.5c-4.8,0.7-8.8,1.2-12,1.8c-0.2-0.9-0.2-2.1-0.2-3c0-3.5,1.6-8.3,4.8-14.8c3.2-6.2,4.8-11.1,4.8-14.1
	c0-1.2,0-2.3-0.2-3.5c-0.2-0.9-0.7-2.1-1.2-3.2c-5.5,2.3-10.2,9.5-14.5,21.9c-3,9-4.8,14.1-5.5,15.5
	C346,453.2,343.9,457.5,341.8,461.7L341.8,461.7z"/>
<path class="st0" d="M461.4,407.2c-3.9,5.3-7.4,11.3-11.1,18.2c-2.8,5.3-5.8,12.2-9,20.1c-2.1,5.3-4.6,11.8-7.4,19.6
	c-2.5,4.4-5.1,9-7.6,13.4c-1.8,3.7-2.8,6.7-2.8,8.8c0,1.2,0.2,2.1,0.9,3c0.7,0.9,1.8,1.4,3.2,1.6c3.5,0.5,6.5-2.3,9.5-8.8
	c1.4-3,2.8-7.4,4.4-13.4c1.4-5.1,4.4-11.8,8.8-20.1c5.8-10.9,9.5-17.3,10.6-20.1c3.5-7.6,5.1-14.5,5.1-20.8h-3L461.4,407.2z
	 M476.6,426.6c1.6,5.1,3,9.9,4.6,14.8c1.4,4.8,3,9.9,4.6,14.8c-11.3,2.5-17.5,3.9-18.7,4.2c-6.9,1.2-13.4,1.8-19.4,1.8
	c0,3,0.9,5.1,3,6.5c1.8,1.2,4.4,1.6,7.6,1.6c2.3,0,5.1-0.2,8.8-0.9c3.7-0.7,8.3-1.6,14.1-2.8h0.9c4.8,0,7.6,3.2,8.5,9.7
	c0.5,3.5,0.9,8.5,1.2,15.5c1.4-0.2,3.5-0.5,5.8-0.9c1.2-0.2,2.3-0.2,3.5-0.5c0-1.6-0.7-5.8-2.1-12.2c-0.7-2.8-0.9-5.1-0.9-6.9
	c0-3.7,2.3-6.5,6.7-8.3c3.9-1.2,7.6-2.3,11.5-3.7c-0.9-2.1-2.1-3.7-3.2-4.4c-1.2-0.9-2.5-1.2-3.9-1.2c-0.7,0-2.3,0.2-5.1,0.7
	c-1.2,0.2-2.1,0.2-3,0.2c-1.4,0-2.5-0.2-3.5-0.9c-0.9-0.7-1.8-1.8-2.8-3.5c-1.8-3.9-3.5-8.3-5.1-13.4c-1.4-5.1-3-9.9-4.2-14.8
	c-3-9.9-4.6-15.2-4.8-15.7c-3-7.6-6-11.3-9-10.9c-1.8,0.2-3,0.7-3.7,1.4s-0.9,1.6-0.9,3c0,1.2,0.5,2.8,1.2,4.6
	c0.9,1.8,2.1,4.4,3.5,7.2C473.6,416.7,475.2,421.8,476.6,426.6L476.6,426.6z"/>
<path d="M577.5,404.5c-1.6,1.2-3.2,2.5-4.6,4.2c-0.7,0.7-2.1,2.3-4.4,4.8c-1.8-1.8-3.5-3-5.1-3c-3.5,0-6.9,3.7-10.2,11.3
	c-2.1,5.5-4.2,11.3-6,16.9c-3.5,7.6-6.9,15-10.4,22.6c-4.4,9.7-6.5,17.5-6.5,23.8c0,3.2,0.5,6,1.6,8.5c4.2-2.5,7.8-6.7,10.6-12.5
	c1.2-2.1,3.2-7.4,6.2-15.5c1.4-3.7,3-7.4,5.3-11.3c1.8-3.2,4.2-6.9,6.9-10.9c2.1-3,4.2-6.2,6.2-9.2c2.8-3.9,5.3-7.4,7.6-9.9
	c0.9,3.7,1.4,7.4,1.8,10.9c0.2,3.5,0.5,9,0.5,16.6v3.9c0,6,0.2,11.3,0.5,16.2c0.2,4.8,0.9,9.2,1.8,13.4c4.6-0.5,8.5-3.2,12.2-7.8
	c2.1-2.8,5.1-6.9,9.2-12.9c3.5-3.9,7.2-8.5,10.9-13.6c3.5-4.8,6.9-9.7,10.6-14.5c0,4.8-0.7,10.4-2.3,17.1c-1.6,6.7-3,13.2-4.6,19.6
	c-1.4,6.5-2.3,12.2-2.3,17.3c0,2.8,0.2,5.5,0.7,8.1c0.5,2.5,1.2,5.1,2.3,7.6c3.7-3.7,6.5-10.9,8.5-21.5c1.2-8.1,2.5-16.4,3.7-24.5
	c1.2-6.2,2.5-12.5,3.9-19.2c1.4-6.7,2.1-12.7,2.1-18c0-4.2-0.5-8.1-1.2-11.8c-3.9,0.7-7.6,3.7-11.5,9c-2.8,4.4-5.5,9-8.3,13.4
	c-6,9.2-9.9,15-11.5,17.1c-4.8,6.2-9.7,11.1-14.5,14.1c0-11.3,0-19.9-0.2-25.9c0-5.8-0.5-12-1.4-18.7c-0.2-2.8-0.9-5.3-1.8-7.6
	c-1.2-3.2-2.8-5.1-4.4-5.8L577.5,404.5L577.5,404.5z"/>
<path class="st0" d="M716.3,483.2c3.5,1.2,6,1.6,7.8,1.6c0.9,0,1.8,0,3-0.2c-0.7-4.2-3.5-7.2-7.8-8.8c-3.2-1.2-7.8-1.8-14.1-1.8H695
	c-4.2,0-10.2,0.7-18.2,2.3c-8.1,1.4-13.6,2.3-16.9,2.3c3-6.5,6-12.7,9.2-19.2c1.6-3.9,4.4-6.2,8.3-7.2c3.9-0.5,7.8-1.2,11.8-1.6
	c4.6-0.9,11.3-1.8,20.1-2.3c8.8-0.5,13.9-0.7,15.5-0.9c6.5-0.9,12-2.3,16.4-4.2c-1.2-1.8-2.8-3-4.6-3.7s-4.4-0.9-7.4-0.9
	c-1.8,0-6.2,0.5-13.2,1.4c-2.8,0.5-5.3,0.5-7.2,0.5c-2.5,0-5.5,0.2-9.2,0.7c-7.8,1.2-12.9,1.6-15,1.6c-1.4,0-2.8,0-3.9-0.2
	c-1.4-0.2-2.5-0.5-3.7-0.7c5.1-10.4,9.9-17.5,14.5-21.5c5.5-5.1,13.4-8.1,23.8-9.5l22.9-1.4h3c2.3,0,4.8,0.5,7.8,1.4
	c3,0.9,5.1,1.4,6.7,1.4c1.6,0,3.5-0.5,5.5-1.2c-1.2-3.5-3.5-6.2-7.4-7.8c-3.2-1.4-7.6-2.1-12.9-2.1c-3.2,0-7.4,0.2-12.5,0.9
	c-5.1,0.7-11.3,1.6-18.9,3c-7.2,1.4-14.3,3-21.5,4.4c-3.9,0.5-6.7,2.3-8.3,6c-1.4,3.5-2.5,6.9-3.7,10.4
	c-7.6,16.4-15.2,32.6-22.9,48.9l-4.8,6.9c-0.9,1.6-1.4,3-1.4,4.4c0,2.1,0.2,3.5,0.9,4.2c0.5,0.5,1.4,0.7,2.5,0.7h5.3
	c2.8,0,6-0.5,9.5-1.6c9.5-3,14.5-4.4,15.2-4.4c3.5-0.5,6.7-0.9,10.2-1.6c6.7-0.9,12.5-1.4,17.3-1.4
	C709.8,481.6,712.8,482,716.3,483.2L716.3,483.2z"/>
<path d="M807.4,451.3c4.8-0.5,7.6-0.7,8.3-0.9c-0.5-3-1.4-5.3-2.5-6.5c-1.2-1.2-2.5-1.8-4.4-1.8c-1.2,0-3,0.2-5.8,0.9
	c-2.8,0.7-4.6,1.2-5.8,1.4v-2.3c3.7-10.2,7.2-20.3,10.9-30.5c0.5-2.8,0.9-4.6,1.6-5.5c0.7-0.9,1.6-1.6,2.8-1.6
	c0.7,0,1.6,0.2,2.8,0.5s2.3,0.5,3.5,0.9c5.3,1.4,9.5,2.8,13.2,4.4c4.6,2.1,8.3,4.6,11.3,7.6c3,3,5.3,5.8,6.7,8.3
	c1.4,2.5,2.1,5.3,2.1,8.3c0,2.1-0.5,4.4-1.2,7.2c-1.4,4.6-3.7,9.5-7.2,14.3c-3.5,5.1-7.2,9.2-11.3,12.5c-4.2,3.2-9.7,6.7-16.9,9.9
	c-6.9,3.2-13.2,5.3-18.2,6.2c-0.9,0.2-2.3,0.5-4.4,1.2c-0.7,0.2-1.4,0.2-1.6,0.2c-0.7,0-1.4-0.2-2.1-0.7c-0.7-0.5-1.6-1.2-2.5-2.3
	s-1.6-2.5-1.6-4.2c0-0.9,0.2-2.3,0.5-3.5c0.2-1.4,0.7-2.8,1.2-4.2c0.9-3.5,2.3-6.9,3.9-9.9c2.3-4.2,4.4-6.7,6.7-7.8
	C799.4,452.5,802.6,451.8,807.4,451.3L807.4,451.3z M777.4,394.1c-0.2,0-5.1,0.9-14.5,2.8c-3.7,0.7-6.5,1.2-8.3,1.8
	c0.2,1.6,0.7,3.2,1.4,4.6c0.5,1.4,1.2,2.8,1.8,4.4c4.8-1.6,9.5-2.8,13.9-3.7c4.6-0.7,9-1.2,13.4-1.2c3,0,5.8,0.2,8.5,0.5
	c2.8,0.2,5.5,0.7,8.3,1.4c-2.8,3.9-4.8,8.5-6.9,13.4c-1.8,5.1-3.7,9.9-5.5,15s-3.7,8.3-5.3,9.9c-2.3,2.1-6,3-11.3,3
	c0,0.7-0.2,1.6-0.5,2.5c-0.2,0.9-0.7,2.1-0.9,3.5c0.5,0,2.5,0.7,6.2,1.6c2.8,0.7,4.8,1.2,6,1.4c-2.5,5.5-4.8,11.3-7.2,16.9
	c-2.8,6.7-4.6,12.2-5.1,17.3c-0.2,1.4-0.2,2.8-0.2,3.9c0,1.6,0.2,3,0.9,4.2c0.7,0.9,1.6,1.6,3.2,1.6c1.2,0,2.3-0.2,3.9-0.7
	c0.5-0.2,0.9-0.7,1.6-1.6s1.6-1.4,3-1.4l1.4,1.6v1.4l1.4-1.2h4.2c0.7,0,1.4,0,2.1-0.2c4.8-0.9,9.9-3,15.7-6
	c3.7-2.1,8.5-5.1,14.8-9.5c6.9-4.8,11.5-8.1,13.9-9.5c7.4-4.8,12.7-9.9,16.2-15c3.7-5.5,5.3-12.5,5.3-20.5c0-8.3-3.2-15.9-9.9-22.9
	c-6.2-6.5-13.6-10.6-22.2-12.7c-6.5-1.6-12.5-2.8-18-3.5c-5.5-0.7-11.8-0.9-18.7-0.9c-0.9,0-2.8-0.2-5.5-0.7
	c-2.8-0.5-4.4-0.7-5.1-0.7h-1.8V394.1z"/>
</svg>
