<?xml version="1.0" encoding="UTF-8"?><svg xmlns="http://www.w3.org/2000/svg" xmlns:xlink="http://www.w3.org/1999/xlink" height="1067.3" preserveAspectRatio="xMidYMid meet" version="1.0" viewBox="-1.0 -1.3 1288.7 1067.3" width="1288.7" zoomAndPan="magnify"><g><g id="change1_1"><path d="m356.09 89.476 194.47 326.22-385.28 1.25 190.81-327.47z" fill="#fff" transform="translate(-184.27 -24.15) scale(2.3039)"/></g><g id="change2_1"><path d="m357.25 10.538c-9.5064-0.61439-19.224 3.8748-25.312 11.938l-250.62 421.06c-1.6943 6.3638-1.7584 10.416-0.25 16.406 1.4424 5.7282 7.0801 11.637 12.469 13.062l521.94 0.15625c3.2635-0.59243 7.7628-2.1276 9.9688-3.4062 8.0408-4.6608 13.477-17.071 7.7812-26.5l-253.72-420c-3.7063-6.1353-11.178-10.556-18.188-12.125-1.3382-0.29946-2.7044-0.50598-4.0625-0.59375zm-1.1562 78.938 194.47 326.22-385.28 1.25 190.81-327.47z" fill="#ea0000" transform="translate(-184.27 -24.15) scale(2.3039)"/></g><g id="change3_1"><path d="m349.16 394.46c-8.799-4.216-15.5-14.353-15.5-23.448 0-16.935 17.689-29.691 34.425-24.826 11.291 3.2823 18.964 13.475 18.87 25.065-0.08003 9.845-4.3394 17.097-13.034 22.193-6.655 3.9001-17.79 4.3574-24.761 1.0169zm2-66.87c-1.1-0.60474-3.6904-2.7102-5.7564-4.6788-7.2187-6.8783-7.2097-6.8177-11.915-80.415-4.1828-65.422-4.2174-66.439-2.4227-71.138 4.0379-10.573 13.035-15.203 28.015-14.417 9.5223 0.49979 16.856 3.8452 21.623 9.8638 4.0716 5.1409 4.9569 8.0469 4.9532 16.26-0.00406 8.9248-5.7031 118.37-6.513 125.08-1.0608 8.7844-6.1875 15.913-13.702 19.052-4.294 1.7937-11.379 1.9886-14.282 0.39271z" fill="inherit" transform="translate(-184.27 -24.15) scale(2.3039)"/></g></g></svg>