<?xml version="1.0" encoding="UTF-8"?><svg xmlns="http://www.w3.org/2000/svg" xmlns:xlink="http://www.w3.org/1999/xlink" height="255.5" preserveAspectRatio="xMidYMid meet" version="1.0" viewBox="6.0 5.2 286.4 255.5" width="286.4" zoomAndPan="magnify"><g id="change1_1"><path class="UnoptimicedTransforms" d="m 634.89552,459.29319 c 0.0132,0.0743 -4.76428,0.62635 -13.44396,3.82955 -8.20525,3.02812 -21.80938,9.50091 -33.72165,22.75511 -10.02485,11.15245 -19.59563,28.31065 -21.19638,49.60006 -0.62508,8.33606 -0.0259,17.43291 2.77312,26.25593 2.54606,8.02497 7.01778,16.03118 13.67701,22.3041 5.27118,4.96882 11.94017,8.85804 19.39203,10.71466 7.01928,1.74984 14.78132,1.67262 22.02407,-0.72732 6.06265,-2.00375 11.73492,-5.62936 16.35275,-10.44859 4.43596,-4.62879 7.89696,-10.35241 10.11835,-16.65738 4.21663,-11.93649 3.79356,-25.72448 -0.57269,-38.68337 -2.16293,-6.37532 -5.28758,-12.66655 -9.94625,-17.70329 -4.50851,-4.87059 -10.60908,-8.65187 -17.30665,-9.52286 -5.57479,-0.75171 -11.44845,0.53073 -16.57612,3.28503 -5.01278,2.69274 -9.30895,6.77821 -12.72276,11.56672 -6.67493,9.33406 -9.64117,20.83316 -12.16269,32.7905 -1.46189,7.11271 -2.84288,14.56672 -1.29907,21.55238 0.75058,3.44241 2.1868,6.78001 4.44343,9.44456 2.22493,2.62712 5.27308,4.64336 8.6177,5.29938 3.34929,0.67997 7.0146,-0.0133 9.98536,-1.82502 2.94312,-1.78886 5.24375,-4.69821 6.41601,-8.0022 1.16376,-3.26969 1.23034,-6.96144 0.26214,-10.3582 0,0 -4e-5,-1.2e-4 -4e-5,-1.2e-4 -0.95656,-3.36393 -2.94046,-6.46372 -5.57287,-8.85821 -2.9165,-2.63682 -6.67886,-4.44469 -10.57704,-4.69989 -3.83424,-0.25617 -7.87727,1.00906 -10.61907,3.66997 -2.88327,2.74788 -4.34056,7.05523 -3.82369,11.07998 0.49806,3.98729 2.92796,7.77419 6.341,10.03259 3.3748,2.24489 7.76324,3.03289 11.80809,2.21272 0,0 1.4e-4,-2e-5 1.4e-4,-2e-5 4.00785,-0.80588 7.73108,-3.19704 10.28282,-6.48468 3.50749,-4.47037 4.76188,-10.59572 4.22618,-16.4832 -0.53716,-5.83064 -2.80767,-11.47818 -5.70554,-16.83921 -3.62799,-6.6292 -8.30635,-12.92387 -14.60168,-16.98522 0,0 -1.3e-4,-8e-5 -1.3e-4,-8e-5 -3.10603,-2.01437 -6.58393,-3.49525 -10.21258,-4.11988 0,0 -1.5e-4,-3e-5 -1.5e-4,-3e-5 -3.59524,-0.61898 -7.3652,-0.41552 -10.78615,0.79072 -3.99438,1.39124 -7.53594,4.16648 -10.01976,7.68231 -2.46579,3.48648 -3.90343,7.7323 -4.23626,12.06357 -0.68691,8.54355 3.13055,17.29974 9.19469,23.75582 7.2203,7.69021 17.50653,12.25696 28.23355,14.45287 10.56408,2.14928 21.50853,2.04805 32.68832,1.76931 5.35452,-0.14181 10.71924,-0.31526 15.91715,-1.1943 5.15373,-0.87785 10.23305,-2.43355 14.58632,-5.17041 4.3011,-2.70853 7.97311,-6.6034 9.75344,-11.27478 0.89327,-2.31848 1.34369,-4.8154 1.22427,-7.27386 -0.11811,-2.44566 -0.78755,-4.87693 -2.00837,-6.97192 0,0 -8e-5,-1.3e-4 -8e-5,-1.3e-4 -1.22303,-2.0548 -2.96545,-3.84129 -5.05794,-4.59274 -1.03692,-0.38639 -2.15401,-0.5559 -3.20892,-0.43028 -1.0479,0.12358 -2.07353,0.51673 -2.85874,1.1539 -1.33958,0.99789 -2.0879,2.8404 -2.40851,4.73585 0,0 -2e-5,1.5e-4 -2e-5,1.5e-4 -0.3035,1.92358 -0.0673,4.01851 0.16268,6.22814 0.25569,2.19914 0.50844,4.56723 0.20667,7.04007 -0.28315,2.49575 -1.35661,5.05379 -3.42863,6.89692 -2.14844,1.79288 -5.00216,2.45261 -7.66648,1.95217 0,0 -2.1e-4,-4e-5 -2.1e-4,-4e-5 -2.62904,-0.50183 -4.94695,-1.96445 -6.6075,-3.94206 -1.64637,-1.96032 -2.69176,-4.30718 -3.21534,-6.71187 0,0 -4e-5,-2e-4 -4e-5,-2e-4 -0.52392,-2.39001 -0.59977,-4.80525 -0.44142,-7.14391 0,0 10e-6,-1.9e-4 10e-6,-1.9e-4 0.3055,-4.65196 1.40918,-9.02376 1.51697,-13.26159 0.0519,-2.10616 -0.1091,-4.18862 -0.69296,-6.10267 -0.5828,-1.89943 -1.54556,-3.67967 -2.92327,-4.96333 0,0 -1.1e-4,-1.1e-4 -1.1e-4,-1.1e-4 -1.37557,-1.31508 -3.2202,-2.18744 -5.14245,-2.51437 -1.92123,-0.32889 -3.96623,-0.0992 -5.84425,0.5786 -3.74816,1.3191 -6.78619,4.59229 -8.52785,8.36525 -1.7418,3.78224 -2.20305,8.16228 -1.96423,12.51583 0.24817,4.33994 1.24283,8.68358 2.28911,13.11227 0.97765,4.08999 1.97197,8.14063 3.52427,11.89848 0,0 6e-5,1.6e-4 6e-5,1.6e-4 1.55059,3.73192 3.63449,7.25228 6.51328,9.88837 2.68399,2.48968 6.08429,4.24396 9.69269,5.11908 3.59439,0.87286 7.42465,0.8674 11.09588,0.0926 7.29218,-1.51557 13.86381,-6.19246 18.58033,-12.22684 4.68356,-5.99711 7.58468,-13.36221 9.25708,-21.00764 1.65335,-7.59087 2.07427,-15.47011 2.24143,-23.45869 0.11793,-7.01234 0.0659,-14.06673 -2.05692,-20.45706 -1.04669,-3.17995 -2.56891,-6.2005 -4.66496,-8.71895 0,0 -1.2e-4,-1.4e-4 -1.2e-4,-1.4e-4 -2.0844,-2.50299 -4.73415,-4.55716 -7.71519,-5.68344 -3.3085,-1.28324 -7.08449,-1.42727 -10.68878,-0.72924 -3.59918,0.6993 -7.05566,2.28464 -10.25267,4.32548 -6.39251,4.0672 -11.54901,10.00528 -17.37515,15.62535 -5.18075,5.04824 -10.74419,9.65205 -14.15651,15.4888 -1.70567,2.89848 -2.9307,6.07795 -3.19992,9.31208 0,0 -2e-5,1.9e-4 -2e-5,1.9e-4 -0.26511,3.2059 0.35588,6.52985 2.05064,9.12849 0,0 9e-5,1.5e-4 9e-5,1.5e-4 1.90232,3.01698 5.28811,5.13946 8.88557,5.86532 0,0 1.8e-4,3e-5 1.8e-4,3e-5 3.60216,0.7336 7.51759,0.0689 10.92285,-1.57728 3.40489,-1.64508 6.33821,-4.32387 8.61934,-7.47705 2.27504,-3.14793 3.8877,-6.8102 5.02111,-10.64306 2.52789,-8.54794 2.4894,-17.83244 0.77405,-26.79301 -1.70789,-8.89574 -5.08699,-17.48401 -9.13699,-25.82339 -3.73814,-7.60356 -8.04184,-15.0626 -14.36563,-20.23822 -3.13415,-2.58251 -6.72651,-4.62111 -10.57322,-5.65793 0,0 -1.9e-4,-5e-5 -1.9e-4,-5e-5 -3.82346,-1.03021 -7.93621,-1.11339 -11.6409,0.0524 -2.9887,0.91678 -5.75784,2.65076 -8.1157,4.84028 -2.35407,2.18775 -4.29114,4.86849 -5.8772,7.77034 0,0 -1e-4,1.8e-4 -1e-4,1.8e-4 -3.17768,5.78563 -4.80532,12.44143 -6.48952,19.21453 0,0 -5e-5,2.2e-4 -5e-5,2.2e-4 -1.78666,7.3351 -3.59946,14.65198 -3.48692,21.9066 0.0494,3.61306 0.54411,7.20881 1.69242,10.55642 1.14449,3.33248 2.91591,6.45481 5.32853,8.92056 2.55162,2.64057 5.87198,4.57731 9.44177,5.79702 0,0 2e-4,7e-5 2e-4,7e-5 3.56518,1.21665 7.41376,1.69425 11.28321,1.66321 7.72226,-0.0469 15.41949,-2.25463 23.25776,-4.44492 13.76324,-3.9051 27.78652,-7.7607 39.68461,-15.23413 0,0 1.9e-4,-1.2e-4 1.9e-4,-1.2e-4 5.91799,-3.70671 11.32714,-8.27904 15.49816,-13.7967 4.14361,-5.48382 7.11109,-11.92936 8.02641,-18.67504 0.87221,-6.29987 -0.0342,-12.87886 -2.53934,-18.77247 -2.49142,-5.86826 -6.58496,-11.08972 -11.68673,-14.98513 0,0 -1.8e-4,-1.4e-4 -1.8e-4,-1.4e-4 -7.13382,-5.47158 -16.27994,-8.2841 -25.43286,-8.48093 -9.10944,-0.19617 -18.26968,2.18852 -26.62237,6.22858 -16.61459,7.99621 -29.52282,22.35139 -41.22149,37.46227 -10.61367,13.82602 -20.56702,28.65681 -25.12482,45.29582 -2.61788,9.60322 -3.47777,19.89894 -0.53311,29.17922 1.45007,4.62191 3.79489,8.97812 7.02043,12.515 0,0 1.5e-4,1.6e-4 1.5e-4,1.6e-4 3.21059,3.52157 7.30598,6.27842 11.80909,7.65446 5.42256,1.70078 11.47965,1.37079 17.11057,-0.28271 5.62588,-1.65772 10.87066,-4.69698 15.73376,-8.30814 6.84965,-5.1213 12.88608,-11.40327 17.22287,-18.71635 4.31132,-7.271 6.97763,-15.59885 7.11884,-24.00073 0.14268,-8.34983 -2.21273,-16.83847 -7.07861,-23.56206 -4.82438,-6.67916 -12.20604,-11.67437 -20.27065,-13.11033 -3.56418,-0.6253 -7.23196,-0.62338 -10.50839,0.45149 -4.0868,1.2867 -7.67983,4.26212 -10.0272,7.96586 -2.35348,3.70555 -3.48037,8.22475 -3.4555,12.71743 0,0 0,2.3e-4 0,2.3e-4 0.0246,4.49193 1.23434,9.00463 3.22547,13.14825 1.99023,4.13822 4.80076,7.91519 8.04545,11.314 11.43175,12.02703 28.04393,18.48846 44.91684,20.9583 10.42845,1.4806 21.1376,1.54318 31.2185,-1.05127 0,0 2.4e-4,-7e-5 2.4e-4,-7e-5 10.00968,-2.5809 19.509,-7.82304 26.02269,-15.69557 7.97044,-9.47146 11.24811,-22.45521 11.47453,-35.2309 0.2002,-12.74758 -2.57532,-25.49032 -5.41356,-38.34907 0,0 -5e-5,-2.5e-4 -5e-5,-2.5e-4 -2.31609,-10.22055 -4.63632,-20.52919 -10.36666,-28.65204 0,0 -1.4e-4,-2e-4 -1.4e-4,-2e-4 -2.83602,-4.05213 -6.44991,-7.57648 -10.7219,-9.79038 0,0 -2.1e-4,-1.1e-4 -2.1e-4,-1.1e-4 -4.24496,-2.19942 -9.19502,-3.18198 -13.75559,-2.27423 -2.98505,0.56116 -5.85995,1.92638 -8.43667,3.74491 0,0 -1.9e-4,1.4e-4 -1.9e-4,1.4e-4 -2.5765,1.82152 -4.84808,4.14736 -6.89127,6.7055 -4.09232,5.11454 -7.13216,11.2119 -10.81454,17.20125 -4.44092,7.27069 -9.56653,13.92959 -12.37502,21.34431 0,0 -9e-5,2.3e-4 -9e-5,2.3e-4 -1.40689,3.69591 -2.29659,7.56521 -2.20734,11.37267 0.0919,3.78596 1.09188,7.57404 3.17723,10.56333 1.65505,2.4286 4.04123,4.40471 6.73061,5.7876 2.69189,1.38408 5.73587,2.15688 8.8382,2.41938 6.20102,0.55256 12.58768,-1.12169 18.70634,-3.51541 0,0 2.4e-4,-1e-4 2.4e-4,-1e-4 13.84409,-5.54926 26.47909,-15.40969 32.64259,-28.78009 3.09042,-6.64586 4.59908,-14.07794 3.96324,-21.3259 -0.63008,-7.21679 -3.38437,-14.31525 -8.0522,-19.786 -5.60624,-6.58464 -14.17112,-10.85895 -22.76096,-10.80665 -5.92781,0.002 -11.88372,1.99643 -16.80713,5.4185 -4.9205,3.4157 -8.85118,8.30103 -11.37307,13.80925 -5.06533,10.94949 -4.20397,24.36641 0.83115,35.61399 3.07981,6.76442 7.91254,13.51114 9.64462,21.83921 0.85775,4.19012 0.67403,8.7574 -1.10954,12.9271 -0.90672,2.07917 -2.24694,3.99536 -3.98191,5.55767 -1.73872,1.56432 -3.87367,2.70774 -6.21788,3.24327 -2.35322,0.51616 -4.77254,0.39385 -7.01345,-0.26811 -2.23305,-0.66015 -4.2652,-1.79187 -5.99548,-3.2379 -3.4315,-2.9078 -5.69499,-6.77948 -7.08096,-10.75272 -1.40136,-3.95319 -2.11159,-7.95052 -2.84094,-11.77276 0,0 -5e-5,-2.7e-4 -5e-5,-2.7e-4 -0.7483,-3.79708 -1.5104,-7.47718 -2.97229,-10.72909 -2.64014,-6.00015 -7.74624,-10.96001 -13.79885,-13.62296 -6.04305,-2.66979 -13.11993,-3.08721 -19.54431,-1.31581 -5.10943,1.39682 -9.86387,4.18677 -13.94681,7.74837 0,0 -2e-4,1.7e-4 -2e-4,1.7e-4 -4.07962,3.56161 -7.48555,7.94191 -10.35357,12.68026 -3.86075,6.52509 -6.76453,13.79823 -6.08179,20.90375 0.31155,3.53713 1.43486,7.01521 3.45161,9.79891 2.00122,2.76703 4.89751,4.9508 8.09569,5.78156 0,0 2.3e-4,6e-5 2.3e-4,6e-5 3.10682,0.84823 6.61291,0.45536 9.56887,-0.95987 0,0 2.1e-4,-10e-5 2.1e-4,-10e-5 2.96556,-1.41113 5.46419,-3.9145 7.02161,-6.87117 1.56388,-2.95856 2.19901,-6.45229 1.91101,-9.84493 -0.28557,-3.39568 -1.52554,-6.74391 -3.43751,-9.63558 -1.94281,-2.91986 -4.58954,-5.3908 -7.657,-7.00341 -3.05804,-1.61073 -6.57293,-2.41035 -9.9791,-2.16321 -4.54913,0.29937 -9.02007,2.52486 -12.22461,5.87137 0,0 -1.7e-4,1.8e-4 -1.7e-4,1.8e-4 -3.21575,3.34591 -5.22413,7.90558 -5.76438,12.59101 0,0 -3e-5,2.5e-4 -3e-5,2.5e-4 -0.5451,4.68912 0.39417,9.58239 2.45876,13.91278 2.0636,4.33242 5.29805,8.13653 9.16395,11.10941 0,0 2.1e-4,1.6e-4 2.1e-4,1.6e-4 3.85629,2.9515 8.35663,5.08537 13.07945,6.06061 4.71216,0.9748 9.68103,0.81805 14.25178,-0.57587 0,0 2.4e-4,-8e-5 2.4e-4,-8e-5 4.56057,-1.38797 8.77776,-4.00866 11.91683,-7.55217 0,0 1.7e-4,-2e-4 1.7e-4,-2e-4 3.13402,-3.53161 5.24821,-8.02124 5.8323,-12.6735 0.45585,-3.73201 -0.0152,-7.60374 -1.67995,-10.81175 -1.64415,-3.1792 -4.47386,-5.84734 -7.76068,-6.86098 -2.03365,-0.65997 -4.29549,-0.73802 -6.43061,-0.28562 -2.13847,0.45102 -4.19059,1.46594 -5.93096,2.86075 -3.49096,2.75523 -5.66306,7.22428 -6.25328,11.8033 -0.59559,4.60554 0.43789,9.44926 2.43076,13.83984 0,0 1.1e-4,2.4e-4 1.1e-4,2.4e-4 2.00144,4.39636 5.04753,8.36428 8.51541,11.98506 4.54645,4.7009 9.78155,8.73971 15.64774,11.29461 5.8436,2.54201 12.35997,3.67607 18.50598,2.62601 5.45272,-0.91475 10.67331,-3.52373 14.48859,-7.46005 3.80751,-3.91728 6.29198,-9.21497 6.64502,-14.6199 0,0 2e-5,-2.6e-4 2e-5,-2.6e-4 0.44955,-6.22849 -1.97457,-12.69568 -6.21779,-17.39602 -4.24046,-4.71538 -10.38222,-7.75387 -16.75424,-8.62265 -5.57978,-0.7729 -11.41055,0.11539 -16.87847,2.02859 0,0 -2.6e-4,9e-5 -2.6e-4,9e-5 -5.46798,1.91817 -10.59519,4.92201 -15.43773,8.39293 0,0 -2.3e-4,1.6e-4 -2.3e-4,1.6e-4 -9.6643,6.93748 -18.16602,15.90423 -28.35133,23.24946 0,0 -2.4e-4,1.7e-4 -2.4e-4,1.7e-4 -11.01004,7.91378 -23.25306,13.38417 -33.2864,21.39053 -4.99953,3.99286 -9.50126,8.59088 -12.64327,13.95961 0,0 -1.4e-4,2.3e-4 -1.4e-4,2.3e-4 -3.12363,5.34799 -4.98395,11.50385 -4.5734,17.5115 0.31311,5.28782 2.37262,10.49439 5.45396,14.97111 3.08637,4.48027 7.26193,8.2451 11.90181,11.34671 3.98252,2.66962 8.29318,4.80074 12.81662,6.47507 8.551,3.16513 17.84749,4.69243 27.09257,5.14731 14.18001,0.67516 28.52221,-1.16437 42.91451,-2.7076 6.57405,-0.7278 13.01746,-1.34958 18.85461,-3.42875 5.79128,-2.09821 11.21306,-5.6194 13.94296,-10.7035 2.0957,-3.74901 2.75749,-8.35361 1.90586,-12.59224 0,0 -5e-5,-2.5e-4 -5e-5,-2.5e-4 -0.84527,-4.25186 -3.2416,-8.23674 -6.55091,-11.08104 -3.31311,-2.85655 -7.61748,-4.61644 -12.00291,-5.01348 -4.39507,-0.40303 -8.94565,0.56802 -12.87266,2.64526 -4.66761,2.46529 -8.51177,6.56398 -10.73774,11.36061 -2.23647,4.80293 -2.88026,10.38251 -1.85994,15.59091 0,0 5e-5,2.5e-4 5e-5,2.5e-4 1.23208,6.25027 4.94473,12.10461 10.20325,15.53873 0,0 2.1e-4,1.4e-4 2.1e-4,1.4e-4 5.23481,3.44282 12.15539,4.54238 18.01351,2.58175 3.71355,-1.20937 7.07523,-3.6014 9.61832,-6.64334 2.55194,-3.04928 4.29443,-6.80997 5.16596,-10.75096 1.78514,-7.88592 -0.16056,-16.49292 -4.12115,-23.80148 -2.55294,-4.64779 -5.92697,-8.84073 -10.00875,-12.11613 -4.08324,-3.27726 -8.88506,-5.67244 -13.94188,-6.73419 -7.54508,-1.59652 -15.80132,-0.16394 -22.20464,4.02938 0,0 -2.2e-4,1.4e-4 -2.2e-4,1.4e-4 -6.41679,4.18087 -11.07319,11.20863 -12.20551,18.72477 -1.15586,7.51589 1.21849,15.66498 6.34543,21.20301 5.10617,5.55956 13.09857,8.6021 20.52942,7.65021 5.82549,-0.71159 11.39679,-3.79517 15.23344,-8.26992 0,0 1.7e-4,-1.9e-4 1.7e-4,-1.9e-4 3.85699,-4.48239 6.03759,-10.44629 6.14359,-16.38452 0.12029,-7.16216 -2.85931,-14.48054 -8.13438,-19.19419 -2.64384,-2.37938 -5.84453,-4.15794 -9.25229,-5.09189 0,0 -2.4e-4,-6e-5 -2.4e-4,-6e-5 -3.40924,-0.93644 -7.06129,-1.04613 -10.4871,-0.27224 -3.42814,0.77182 -6.67591,2.42945 -9.26158,4.77445 -2.58889,2.34375 -4.55945,5.4037 -5.56779,8.72291 0,0 -7e-5,2.4e-4 -7e-5,2.4e-4 -1.01228,3.31952 -1.08714,6.95232 -0.17053,10.27553 0,0 7e-5,2.3e-4 7e-5,2.3e-4 0.91271,3.32565 2.82687,6.40801 5.41846,8.64816 2.80565,2.44416 6.48544,3.94436 10.22071,4.25458 4.25365,0.36057 8.68213,-0.84719 12.23791,-3.25006 3.56978,-2.40323 6.3345,-6.06714 7.76583,-10.14961 1.44061,-4.09106 1.55847,-8.68099 0.41748,-12.88922 0,0 -6e-5,-2.4e-4 -6e-5,-2.4e-4 -1.13946,-4.21988 -3.57138,-8.11844 -6.81219,-11.08563 -3.24606,-2.97668 -7.3535,-5.04774 -11.67981,-5.98802 -4.33541,-0.94486 -8.93836,-0.75297 -13.22983,0.46249 -8.58704,2.39843 -15.87829,9.15826 -19.60976,17.34417 -1.40322,3.06385 -2.37635,6.48516 -3.60083,9.97617 0,0 -1e-4,2.7e-4 -1e-4,2.7e-4 -1.20275,3.51075 -2.73893,7.12224 -5.17605,10.33835 -2.44659,3.26098 -6.02666,5.88279 -10.31761,6.75702 -2.1575,0.41412 -4.43729,0.29177 -6.59199,-0.43981 -2.16481,-0.73814 -4.10357,-2.13421 -5.48517,-4.05287 -1.71866,-2.47231 -2.33249,-5.49531 -1.84597,-8.35623 0.49112,-2.84 1.91668,-5.38529 3.91613,-7.30256 0,0 2.4e-4,-2.3e-4 2.4e-4,-2.3e-4 3.03771,-2.89091 7.09759,-4.37633 11.13494,-4.40637 0,0 3.1e-4,-10e-6 3.1e-4,-10e-6 4.01539,-0.0272 7.87876,1.19916 11.17203,3.20009 0,0 2.5e-4,1.6e-4 2.5e-4,1.6e-4 6.53494,4.03584 10.82316,10.36371 14.32096,16.46212 0,0 1.4e-4,2.4e-4 1.4e-4,2.4e-4 5.88041,9.98997 10.8589,20.24545 18.31043,28.27954 7.42054,8.07852 17.24611,13.89838 27.79568,16.9702 10.59644,3.08738 21.96367,3.41745 32.83061,1.39584 21.86659,-4.03043 41.32691,-17.69608 55.4034,-34.95886 3.39661,-4.19365 6.49331,-8.55358 8.71674,-13.27141 2.21823,-4.72162 3.62852,-9.81248 3.54353,-14.85171 -0.0852,-6.09013 -2.3503,-12.21453 -6.427,-16.62226 0,0 -1.6e-4,-1.7e-4 -1.6e-4,-1.7e-4 -4.06426,-4.41434 -10.02966,-7.20019 -15.94486,-7.1733 0,0 -2.4e-4,0 -2.4e-4,0 -4.0316,-0.0294 -8.11889,1.24027 -12.03233,2.98469 -3.91847,1.76537 -7.70372,4.11035 -11.67349,6.34709 0,0 -2.4e-4,1.3e-4 -2.4e-4,1.3e-4 -3.97403,2.2596 -8.19837,4.40423 -12.84987,5.69356 -4.67341,1.31079 -9.82186,1.55329 -14.67769,0.005 -3.21413,-1.0787 -5.80721,-2.71538 -8.29922,-3.60804 -4.3983,-1.59088 -9.5427,-1.37879 -13.60997,0.76382 -4.06559,2.11633 -7.21623,6.24421 -7.92339,10.69376 -0.37144,2.24246 -0.18563,4.59333 0.55987,6.71841 0.74315,2.12633 2.05273,4.07524 3.74791,5.52661 0,0 1.7e-4,1.5e-4 1.7e-4,1.5e-4 1.69338,1.45399 3.80756,2.45347 5.99126,2.80129 0,0 2.2e-4,4e-5 2.2e-4,4e-5 2.18302,0.35156 4.49536,0.0712 6.4983,-0.81571 0,0 1.9e-4,-9e-5 1.9e-4,-9e-5 2.69002,-1.10475 5.0171,-3.55692 7.78864,-5.90822 1.37286,-1.20043 2.88749,-2.3881 4.63492,-3.37431 1.75208,-0.99776 3.77386,-1.70285 5.96202,-1.87057 3.54887,-0.18617 6.91598,1.11629 9.4681,3.26726 0,0 2.4e-4,2e-4 2.4e-4,2e-4 2.53292,2.1285 4.3381,4.8496 5.56762,7.67523 2.4649,5.63902 3.09437,11.4363 5.02444,16.29073 3.13369,8.03408 10.15108,14.49969 18.28738,17.48159 8.18972,3.01625 17.60077,2.59214 25.74037,-0.67525 8.19386,-3.28192 15.19109,-9.44911 19.96307,-16.92977 4.80033,-7.52072 7.38738,-16.41898 7.91102,-25.37083 0.33952,-6.43404 -0.33846,-12.93263 -3.01959,-18.48055 0,0 -1.1e-4,-2.1e-4 -1.1e-4,-2.1e-4 -1.33076,-2.78263 -3.12224,-5.33202 -5.34604,-7.36578 -2.22356,-2.03381 -4.88144,-3.59347 -7.71975,-4.37311 -4.99968,-1.4686 -10.66197,-0.39376 -15.95359,1.47831 -5.31843,1.93174 -10.45706,4.85242 -16.07451,7.18622 -1.86241,0.79173 -3.92368,1.52633 -6.21612,1.82431 -2.31877,0.3192 -4.85435,-0.0323 -7.12204,-1.32952 0,0 -2.9e-4,-1.6e-4 -2.9e-4,-1.6e-4 -1.40697,-0.85295 -2.54865,-2.03586 -3.35081,-3.40805 -0.79938,-1.36939 -1.27497,-2.87401 -1.43607,-4.39478 -0.29381,-3.04414 0.49859,-5.98896 1.92242,-8.44645 2.86431,-4.85135 7.29457,-7.91706 10.93483,-10.94185 0,0 1.8e-4,-1.5e-4 1.8e-4,-1.5e-4 1.79564,-1.5434 3.45,-3.11537 4.63616,-4.89853 1.16899,-1.77726 1.99198,-3.75214 2.00466,-5.66231 0.0189,-0.95395 -0.12373,-1.89981 -0.45591,-2.73478 -0.3303,-0.83179 -0.83192,-1.593 -1.46434,-2.14599 -0.62722,-0.5508 -1.3977,-0.95249 -2.16713,-1.08424 -0.7618,-0.13411 -1.58602,-0.0501 -2.23298,0.26629 0,0 -1.3e-4,7e-5 -1.3e-4,7e-5 -0.80854,0.3384 -1.51315,1.1588 -2.02125,2.0954 -0.51331,0.96059 -0.74911,2.16238 -0.86902,3.44329 -0.22247,2.57895 0.3036,5.58884 -0.0188,8.96637 0,0 -3e-5,2.8e-4 -3e-5,2.8e-4 -0.51184,4.43073 -2.44104,8.35477 -4.64659,11.75272 -2.16751,3.41993 -4.54116,6.46925 -6.20247,9.69639 -1.61608,3.22882 -2.71935,6.71136 -2.14917,9.87801 0.2598,1.57972 0.86054,3.09676 1.81517,4.25515 0.94467,1.14979 2.24056,2.042 3.59926,2.34036 1.63932,0.42289 3.58263,-0.0186 5.14636,-0.96779 0,0 1.6e-4,-10e-5 1.6e-4,-10e-5 1.59225,-0.96254 2.85644,-2.58166 3.7077,-4.39443 1.77464,-3.64162 1.49849,-8.23621 0.97736,-12.8247 0,0 -3e-5,-2.3e-4 -3e-5,-2.3e-4 -0.62157,-4.62042 -1.58513,-9.56215 -0.96345,-14.77279 0.32286,-2.61552 1.14209,-5.24744 2.60767,-7.60769 1.47475,-2.37878 3.68454,-4.35727 6.41037,-5.44892 2.10258,-0.80101 4.31874,-1.01559 6.42326,-0.78129 2.09928,0.23011 4.07529,0.82321 5.89377,1.5989 0,0 2.4e-4,10e-5 2.4e-4,10e-5 3.63866,1.54948 6.708,3.64826 9.79176,5.10736 0,0 2.1e-4,1e-4 2.1e-4,1e-4 5.13612,2.4399 10.94725,3.47914 16.60378,3.01718 0,0 2.3e-4,-2e-5 2.3e-4,-2e-5 5.67788,-0.46108 11.24007,-2.43925 15.95065,-5.62277 0,0 1.9e-4,-1.2e-4 1.9e-4,-1.2e-4 4.72992,-3.19372 8.63223,-7.62442 11.2385,-12.68891 2.6182,-5.0829 3.94527,-10.83668 3.86367,-16.54196 -0.14125,-11.43447 -6.30117,-22.69761 -15.61455,-29.22931 -9.38683,-6.61508 -21.98955,-8.51051 -32.94783,-5.28896 -7.94221,2.31779 -15.09273,7.21325 -20.52708,13.4918 -5.4709,6.31897 -9.23398,14.0782 -11.2961,22.20696 -1.08672,4.49103 -1.7255,9.0574 -0.53045,13.08861 0,0 6e-5,1.9e-4 6e-5,1.9e-4 0.57763,2.01597 1.54727,3.90683 2.92448,5.34755 0,0 1.3e-4,1.4e-4 1.3e-4,1.4e-4 1.36983,1.43406 3.1472,2.50336 5.00086,2.83039 1.77537,0.34248 3.72281,0.0356 5.38289,-0.77948 0,0 1.7e-4,-8e-5 1.7e-4,-8e-5 1.67101,-0.81552 3.10669,-2.19864 4.07869,-3.83239 0.97863,-1.63983 1.49614,-3.5905 1.544,-5.54161 0,0 0,-2e-4 0,-2e-4 0.0493,-1.95826 -0.39652,-3.95462 -1.21627,-5.78004 0,0 -8e-5,-1.9e-4 -8e-5,-1.9e-4 -1.61743,-3.66938 -4.9013,-6.60701 -8.6429,-8.4461 -3.77785,-1.85189 -8.13314,-2.57831 -12.50527,-2.67259 -6.86873,-0.13059 -14.0599,1.43288 -21.59995,0.98322 -3.79181,-0.22292 -7.65722,-1.04849 -11.19281,-2.83827 -3.56486,-1.79936 -6.65947,-4.71114 -8.41272,-8.47107 0,0 -1.1e-4,-2.4e-4 -1.1e-4,-2.4e-4 -1.15026,-2.55034 -1.60835,-5.31747 -1.49708,-8.01098 0.10947,-2.69231 0.72178,-5.29403 1.63969,-7.7175 1.84757,-4.84437 4.71331,-9.00193 7.30412,-13.00971 2.56321,-4.0483 4.96077,-8.08224 5.81876,-12.38568 0.44025,-2.14802 0.5419,-4.34196 0.13233,-6.39434 -0.40941,-2.0473 -1.28895,-4.0003 -2.63347,-5.46798 -1.76134,-2.00192 -4.47654,-3.21417 -7.26322,-3.62338 -2.817,-0.41049 -5.80235,0.0563 -8.66264,0.97057 -5.76404,1.832 -10.96482,5.74814 -16.89594,8.82612 -5.04232,2.61864 -10.26513,4.48088 -15.17271,6.65595 0,0 -2e-4,9e-5 -2e-4,9e-5 -4.91731,2.20614 -9.62525,4.7261 -13.20508,8.33664 0,0 -1.5e-4,1.5e-4 -1.5e-4,1.5e-4 -1.79896,1.80162 -3.3294,3.84355 -4.38164,6.07839 -1.05211,2.23588 -1.6627,4.67172 -1.63266,7.06803 0.0292,2.39411 0.66519,4.79096 1.9232,6.74204 0,0 10e-5,1.6e-4 10e-5,1.6e-4 1.2522,1.94837 3.13301,3.52908 5.25647,4.25694 0,0 1.7e-4,6e-5 1.7e-4,6e-5 1.73289,0.63612 3.75694,0.70369 5.84297,0.59872 0,0 2e-4,-1e-5 2e-4,-1e-5 8.56813,-0.51419 16.89612,-4.95867 22.05028,-11.72848 5.21198,-6.81525 7.24575,-16.05337 5.40007,-24.35369 -1.84268,-8.37592 -7.64444,-15.87252 -15.21676,-19.72875 -7.63015,-3.90836 -17.12708,-4.14948 -24.8766,-0.67579 -4.53986,2.01404 -8.53595,5.25646 -11.83802,9.06825 -3.31993,3.83632 -5.94011,8.29756 -8.11019,12.96829 0,0 -8e-5,1.8e-4 -8e-5,1.8e-4 -2.99507,6.53745 -5.11111,13.49093 -4.6999,20.35894 0.19444,3.44722 0.98908,6.84912 2.49092,9.87185 1.50465,3.02864 3.70879,5.71352 6.44153,7.57373 0,0 1.5e-4,1e-4 1.5e-4,1e-4 2.42937,1.66786 5.30304,2.71196 8.23952,3.04762 2.94786,0.33845 5.98937,-0.0409 8.79066,-1.04519 0,0 1.7e-4,-6e-5 1.7e-4,-6e-5 5.62121,-1.99474 10.25676,-6.67321 12.58141,-12.19374 2.73816,-6.46271 2.34054,-14.18183 -0.60251,-20.56972 -2.96833,-6.46512 -8.53328,-11.67566 -14.99438,-14.68817 0,0 -1.7e-4,-8e-5 -1.7e-4,-8e-5 -5.71779,-2.66944 -12.18725,-3.66693 -18.52427,-3.32041 -6.39006,0.35055 -12.69023,2.08553 -18.59741,4.63848 -11.92308,5.13626 -22.23887,13.71354 -32.27298,22.15138 -4.83891,4.08671 -9.58233,8.1143 -13.68196,12.67818 -4.11713,4.59457 -7.60887,9.71254 -9.5622,15.35952 -1.9583,5.67486 -2.39336,11.92844 -0.53061,17.43819 0,0 6e-5,1.7e-4 6e-5,1.7e-4 0.92712,2.77477 2.4017,5.36243 4.36108,7.47077 1.96433,2.11491 4.42233,3.77621 7.10847,4.69848 4.62935,1.64182 9.98559,0.99738 14.65675,-0.93936 4.72564,-1.96809 8.86326,-5.32837 12.58377,-9.06319 14.9053,-14.97105 22.39017,-35.96951 28.01969,-56.08277 2.45417,-8.8554 4.64503,-17.73988 8.29314,-26.27056 3.6756,-8.63359 8.99358,-16.75596 16.54235,-22.43539 6.51634,-4.87972 14.58156,-7.63849 22.66832,-7.44154 8.20394,0.2062 16.25977,3.58265 21.89986,9.45926 0,0 1.2e-4,1.3e-4 1.2e-4,1.3e-4 3.47085,3.64807 5.93394,8.07692 7.61054,12.66924 1.69168,4.62209 2.65909,9.4158 3.35965,14.13989 1.45433,9.64438 1.89289,19.04138 5.16757,27.61833 1.63837,4.30674 3.9398,8.33673 7.08539,11.51056 3.16635,3.1922 7.19725,5.55373 11.49939,6.26747 4.31958,0.72064 8.98147,-0.22263 12.31543,-2.85627 1.68906,-1.32027 3.06756,-3.0435 3.91587,-4.97635 0.85266,-1.93891 1.19362,-4.11142 0.92014,-6.17855 -0.29557,-2.53863 -1.59392,-5.01337 -2.92046,-7.54408 -1.37886,-2.53891 -2.83988,-5.25054 -3.46164,-8.37623 -0.50627,-2.69132 -0.26909,-5.48029 0.62922,-8.03295 0.90378,-2.56376 2.44748,-4.86266 4.42303,-6.68255 0,0 1.3e-4,-1.1e-4 1.3e-4,-1.1e-4 4.0016,-3.66089 9.5697,-5.24372 14.82651,-4.60216 5.30057,0.65496 10.15648,3.40097 13.64156,7.27827 3.51587,3.91524 5.67923,8.85674 6.51426,13.92329 1.60139,9.94173 -1.54595,19.88908 -5.95314,28.37703 -4.4858,8.71303 -10.18948,16.44994 -14.46681,24.70266 -5.40472,10.41764 -8.84362,21.91708 -15.30689,31.78764 -3.3153,5.06191 -7.45242,9.628 -12.5364,12.90601 -5.17721,3.34095 -11.36365,5.17752 -17.48212,4.6291 -7.19254,-0.67608 -13.80635,-4.75576 -17.72675,-10.61008 -3.99899,-5.9929 -5.11448,-13.61673 -3.26576,-20.389 1.19349,-4.35934 3.55455,-8.33399 6.71308,-11.46255 3.20578,-3.17344 7.20254,-5.46055 11.47222,-6.66008 8.76031,-2.44662 18.37344,-0.12905 25.1283,5.44227 3.72116,3.07669 6.59296,7.03282 8.5396,11.31823 1.98108,4.36103 3.03832,9.05284 3.35136,13.70948 0.63118,9.54874 -1.74219,18.92557 -5.0145,27.37987 -4.02932,10.52288 -9.83846,20.30573 -18.65976,26.6549 -6.83851,4.87936 -15.01113,7.31439 -22.94707,8.03758 -8.27333,0.75678 -16.50565,-0.21357 -24.20909,-1.76046 -7.89999,-1.58293 -16.13148,-3.94727 -23.47727,-5.80275 -8.04272,-2.02805 -15.73244,-3.65447 -23.49447,-4.10018 -5.40321,-0.31393 -10.76924,-0.0699 -16.05037,-0.32534 -5.55937,-0.26096 -10.9949,-1.10711 -15.89636,-3.36409 -5.16063,-2.37102 -9.46626,-6.42635 -11.39244,-11.51501 -0.99579,-2.65227 -1.29829,-5.53152 -0.80799,-8.25843 0.50711,-2.81474 1.88089,-5.42303 3.90532,-7.33645 1.55053,-1.45804 3.44009,-2.48192 5.4168,-3.05639 2.02608,-0.58863 4.13753,-0.72041 6.1629,-0.48821 4.20689,0.48942 8.01006,2.4826 11.05976,4.96988 6.17971,5.04811 10.83396,13.45589 14.87903,18.76923 8.60815,11.29045 19.47191,17.96757 28.98804,21.54113 11.12614,4.17879 21.06169,4.39926 26.89873,4.08387 6.14886,-0.33224 9.22145,-1.13177 9.2341,-1.0716 0.0127,0.0602 -3.0354,0.98148 -9.2108,1.43646 -5.86349,0.432 -15.87662,0.34749 -27.17329,-3.7696 -9.6591,-3.5208 -20.72033,-10.18757 -29.54572,-21.59904 -4.16378,-5.3761 -8.83326,-13.71017 -14.80597,-18.47954 -2.94284,-2.3538 -6.55561,-4.23587 -10.46093,-4.64915 -1.87876,-0.20222 -3.82553,-0.0725 -5.66685,0.47675 -1.7943,0.53504 -3.50426,1.47014 -4.8794,2.78277 -1.80225,1.71052 -3.02799,4.08355 -3.47758,6.62634 -0.4374,2.46826 -0.14058,5.10421 0.77991,7.53319 1.75598,4.67497 5.83749,8.433 10.70723,10.67583 4.65203,2.13751 9.89934,2.91008 15.35652,3.15958 5.18829,0.22964 10.55148,-0.0374 16.06857,0.2574 7.92392,0.42862 15.72931,2.03937 23.81828,4.05149 7.39038,1.83517 15.60793,4.1631 23.41274,5.69446 7.61186,1.49016 15.67642,2.42078 23.68498,1.64818 7.67183,-0.74288 15.52542,-3.09477 21.97967,-7.75982 8.3849,-6.00515 13.91168,-15.49503 17.87587,-25.80242 3.16107,-8.31041 5.45864,-17.40236 4.79874,-26.49201 -0.31648,-4.43106 -1.32496,-8.87006 -3.19913,-12.94866 -1.83989,-4.00378 -4.52299,-7.68894 -7.96486,-10.50727 -6.19879,-5.08926 -15.13781,-7.22209 -23.08782,-4.94996 -3.89346,1.10562 -7.54905,3.20978 -10.45261,6.10341 -2.86153,2.84986 -5.00666,6.48144 -6.07291,10.42823 -1.65414,6.10321 -0.61779,13.06911 2.99102,18.41952 3.51483,5.2317 9.54093,8.92953 15.9421,9.49738 5.46501,0.51156 11.11791,-1.21462 15.89611,-4.2824 4.70892,-3.02613 8.58297,-7.35409 11.75945,-12.19366 6.20356,-9.44932 9.56174,-20.86254 15.10174,-31.59827 4.39119,-8.50133 10.08094,-16.25682 14.40557,-24.72339 4.17534,-8.24723 7.20905,-17.64549 5.6315,-26.6876 -0.7834,-4.5983 -2.73306,-9.06726 -5.8622,-12.50589 -3.08406,-3.39261 -7.36433,-5.82413 -11.90349,-6.34647 -4.46844,-0.52203 -9.27781,0.83227 -12.55283,3.89416 0,0 -10e-5,9e-5 -10e-5,9e-5 -1.63569,1.51655 -2.92141,3.43342 -3.65168,5.53407 -0.72726,2.08753 -0.92132,4.38061 -0.50381,6.54443 0.45617,2.53967 1.82446,4.97053 3.18548,7.54446 1.3896,2.53779 2.79975,5.33926 3.25692,8.53521 0.3429,2.62878 -0.0666,5.32204 -1.12959,7.73953 -1.05838,2.4031 -2.72629,4.50765 -4.78624,6.11775 -4.1081,3.18334 -9.5407,4.33669 -14.6266,3.46724 -5.01903,-0.86211 -9.59969,-3.49596 -13.13897,-7.09102 -3.50215,-3.55487 -6.03797,-7.93102 -7.78179,-12.54691 -3.45499,-9.17663 -3.96862,-18.78997 -5.3821,-28.2341 -0.70307,-4.61865 -1.62734,-9.2086 -3.22791,-13.5239 -1.59069,-4.27732 -3.83823,-8.34289 -6.95755,-11.57727 0,0 -1.1e-4,-1.1e-4 -1.1e-4,-1.1e-4 -5.00067,-5.23595 -12.33097,-8.26936 -19.71771,-8.4542 -7.30357,-0.18907 -14.69752,2.37471 -20.66411,6.8414 -6.96113,5.18463 -11.91574,12.87511 -15.47278,21.14592 -3.51173,8.20358 -5.63831,16.94983 -8.10583,25.87035 -5.56428,20.31594 -13.28332,41.80184 -28.78185,57.59309 -3.8739,3.94912 -8.3708,7.56401 -13.67055,9.82847 -5.28074,2.26478 -11.45296,2.94869 -17.11339,1.04518 -3.26149,-1.12698 -6.19219,-3.08943 -8.52399,-5.60423 -2.31992,-2.50323 -4.04869,-5.50924 -5.12102,-8.72632 0,0 -7e-5,-1.9e-4 -7e-5,-1.9e-4 -2.11209,-6.40215 -1.68471,-13.4093 0.51925,-19.69168 2.17779,-6.22078 5.89732,-11.74446 10.24567,-16.56852 4.31166,-4.79446 9.16684,-8.94291 14.01278,-13.03585 10.01577,-8.49593 20.6082,-17.26819 33.1301,-22.74703 6.21614,-2.71153 12.92588,-4.55394 19.83044,-4.95836 6.85955,-0.40287 13.91131,0.69507 20.27356,3.62869 0,0 1.9e-4,9e-5 1.9e-4,9e-5 7.2151,3.331 13.38639,9.12842 16.8058,16.46174 3.38848,7.28908 3.8199,16.00427 0.68413,23.56205 -2.69758,6.46704 -8.0507,11.84521 -14.74781,14.28266 0,0 -2.1e-4,7e-5 -2.1e-4,7e-5 -3.32959,1.20156 -6.93507,1.65166 -10.48323,1.25492 -3.53766,-0.39704 -6.98078,-1.64789 -9.94715,-3.67067 0,0 -1.9e-4,-1.3e-4 -1.9e-4,-1.3e-4 -3.31883,-2.27909 -5.94544,-5.44187 -7.7053,-9.00864 -1.75096,-3.54902 -2.67997,-7.44136 -2.89155,-11.34232 -0.39693,-7.75749 1.82478,-15.32035 5.02101,-22.17475 0,0 9e-5,-1.9e-4 9e-5,-1.9e-4 2.2595,-4.91043 5.06553,-9.67259 8.67061,-13.8728 3.58898,-4.18532 8.02872,-7.76714 13.17354,-10.08536 8.87221,-3.96173 19.4857,-3.70991 28.22525,0.73295 8.65057,4.42009 15.14654,12.7855 17.28016,22.34954 2.09594,9.48312 -0.15936,19.80601 -6.08699,27.60268 -5.89086,7.71803 -15.183,12.69577 -24.95273,13.30872 0,0 -2.3e-4,1e-5 -2.3e-4,1e-5 -2.37095,0.16896 -4.91494,0.0322 -7.40533,-0.80772 0,0 -2.4e-4,-8e-5 -2.4e-4,-8e-5 -3.04396,-1.07829 -5.61106,-3.19683 -7.31217,-5.87291 0,0 -1.4e-4,-2.1e-4 -1.4e-4,-2.1e-4 -1.68874,-2.66328 -2.53832,-5.76569 -2.56092,-8.85859 -0.0216,-3.07913 0.71436,-6.10136 2.01041,-8.82593 1.29076,-2.71472 3.08362,-5.13423 5.16922,-7.20977 0,0 1.6e-4,-1.7e-4 1.6e-4,-1.7e-4 4.16748,-4.1219 9.27824,-6.92587 14.40885,-9.18257 0,0 2e-4,-9e-5 2e-4,-9e-5 5.09074,-2.26572 10.23683,-4.09713 14.93594,-6.56037 5.50466,-2.88775 10.94902,-6.9135 17.50796,-9.10476 3.28835,-1.09321 6.88133,-1.61822 10.48813,-1.14355 3.61927,0.47348 7.1627,2.11855 9.74785,4.92726 1.89562,2.11846 3.10575,4.72594 3.62286,7.4314 0.51533,2.69203 0.4128,5.42858 -0.1361,8.0211 -1.11614,5.15766 -3.69829,9.6572 -6.37127,13.77426 -2.61676,4.11295 -5.34889,8.01472 -6.90064,12.23537 -0.77907,2.10191 -1.3019,4.27031 -1.37181,6.41638 -0.0678,2.136 0.26876,4.27616 1.13072,6.12935 0,0 8e-5,1.7e-4 8e-5,1.7e-4 1.22729,2.76237 3.69505,5.01189 6.5307,6.48945 2.84989,1.47946 6.16873,2.15097 9.55522,2.37849 6.75966,0.44766 13.88036,-1.1249 21.40968,-1.01068 4.80835,0.0618 9.74954,0.9226 14.26571,3.07885 4.5236,2.15512 8.47994,5.77397 10.65826,10.49655 0,0 1e-4,2.3e-4 1e-4,2.3e-4 1.07399,2.3616 1.64701,4.96829 1.59666,7.61166 0,0 -10e-6,2.7e-4 -10e-6,2.7e-4 -0.0517,2.64353 -0.76267,5.28188 -2.12598,7.60459 -1.36606,2.3222 -3.38979,4.25469 -5.84458,5.47924 0,0 -2.4e-4,1.2e-4 -2.4e-4,1.2e-4 -2.45866,1.22142 -5.29175,1.65366 -8.04061,1.15295 -2.848,-0.54923 -5.39771,-2.03649 -7.31582,-4.08606 0,0 -1.8e-4,-2e-4 -1.8e-4,-2e-4 -1.90583,-2.03784 -3.21177,-4.5173 -3.93162,-7.11327 0,0 -7e-5,-2.5e-4 -7e-5,-2.5e-4 -1.39453,-5.17404 -0.77091,-10.47565 0.48861,-15.28682 2.18599,-8.71382 6.24426,-17.05997 12.18724,-23.96763 5.91628,-6.87479 13.74265,-12.21698 22.56062,-14.82701 12.24364,-3.60027 26.08499,-1.51865 36.66109,5.87222 10.48164,7.35645 17.27529,19.77936 17.49269,32.72232 0.0968,6.42365 -1.38604,12.86797 -4.33466,18.61292 -2.94015,5.72366 -7.32031,10.70183 -12.67494,14.32903 0,0 -2.1e-4,1.4e-4 -2.1e-4,1.4e-4 -5.33721,3.61244 -11.60076,5.84338 -18.05614,6.37756 0,0 -2.6e-4,2e-5 -2.6e-4,2e-5 -6.43359,0.52967 -12.99774,-0.64114 -18.86227,-3.4158 0,0 -2.3e-4,-1.1e-4 -2.3e-4,-1.1e-4 -3.50601,-1.66465 -6.51842,-3.73511 -9.6154,-5.01967 0,0 -2e-4,-9e-5 -2e-4,-9e-5 -1.54414,-0.63911 -3.10022,-1.12303 -4.63315,-1.2715 -1.52348,-0.14385 -3.04773,-0.021 -4.34688,0.50515 -1.70515,0.63704 -3.19706,2.02546 -4.25904,3.67775 -1.06817,1.66606 -1.66946,3.69728 -1.95518,5.80629 -0.59425,4.22917 0.37289,8.7879 0.97339,13.63149 0,0 3e-5,2.5e-4 3e-5,2.5e-4 0.69568,4.83497 0.85366,10.23858 -1.33661,15.2597 -1.12811,2.51184 -2.95818,4.7778 -5.40741,6.33453 0,0 -2.6e-4,1.6e-4 -2.6e-4,1.6e-4 -2.47093,1.56569 -5.54528,2.19647 -8.54107,1.53263 -2.43869,-0.59198 -4.55784,-1.99884 -6.06752,-3.88559 -1.49768,-1.87562 -2.41467,-4.10047 -2.7626,-6.37851 -0.6434,-4.53685 0.60699,-8.94607 2.59323,-12.65282 1.93357,-3.69409 4.37039,-6.85843 6.38957,-10.03741 1.97093,-3.18487 3.6714,-6.45954 3.96068,-9.79967 0,0 2e-5,-2.1e-4 2e-5,-2.1e-4 0.28692,-2.5339 -0.24444,-5.50618 0.003,-8.86044 0.11483,-1.68176 0.50877,-3.44849 1.34411,-5.13879 0.83927,-1.71181 2.24563,-3.2145 4.12807,-4.14189 0,0 3.2e-4,-1.5e-4 3.2e-4,-1.5e-4 1.57881,-0.73039 3.31772,-0.93441 4.97699,-0.62545 1.65024,0.31106 3.15367,1.0693 4.36546,2.15448 1.20564,1.08214 2.11157,2.42258 2.6767,3.88383 0.56268,1.45661 0.80939,2.98986 0.76778,4.49682 -0.10816,3.00698 -1.18869,5.7939 -2.77841,8.09645 -1.56965,2.29234 -3.49687,4.17154 -5.45405,5.81885 0,0 -2e-4,1.7e-4 -2e-4,1.7e-4 -3.84231,3.33698 -7.9336,5.99785 -9.91258,9.71843 -0.99526,1.82397 -1.59803,3.85609 -1.35519,5.70648 0.10702,0.92461 0.38163,1.82193 0.83264,2.57285 0.44748,0.74686 1.06094,1.39652 1.76558,1.80861 0,0 1.4e-4,10e-5 1.4e-4,10e-5 1.08857,0.71331 2.65939,0.85736 4.22894,0.70918 1.5934,-0.16907 3.25084,-0.79902 5.00613,-1.51043 5.27131,-2.19043 10.46779,-5.13753 16.25444,-7.26819 5.77527,-2.17635 12.37033,-3.29343 18.75888,-1.6007 3.60628,1.00936 6.89245,2.91501 9.60341,5.41211 2.70288,2.48996 4.84404,5.50887 6.39397,8.77445 0,0 1.2e-4,2.5e-4 1.2e-4,2.5e-4 3.06746,6.5219 3.89752,13.77034 3.47171,20.72614 -0.54067,9.66872 -3.35955,19.30833 -8.61153,27.59537 -5.23734,8.25948 -12.95721,15.03707 -22.13673,18.75695 -9.15483,3.7026 -19.67869,4.15288 -29.08086,0.74459 -9.37326,-3.41258 -17.31148,-10.76414 -21.04284,-20.14929 -2.21196,-5.65547 -2.81954,-11.39348 -4.95484,-16.10179 -1.06593,-2.33756 -2.43899,-4.48681 -4.2695,-5.95919 0,0 -1.7e-4,-1.3e-4 -1.7e-4,-1.3e-4 -1.80454,-1.4442 -4.07172,-2.38994 -6.16601,-2.19935 -1.30996,0.0658 -2.67222,0.57687 -3.98434,1.28805 -1.31454,0.72149 -2.56518,1.72522 -3.8436,2.82278 -2.52182,2.2367 -5.24168,4.93994 -8.97144,6.66347 0,0 -2.8e-4,1.2e-4 -2.8e-4,1.2e-4 -2.87082,1.26008 -6.06604,1.6555 -9.14703,1.15952 0,0 -3e-4,-5e-5 -3e-4,-5e-5 -3.07477,-0.49893 -5.9641,-1.85635 -8.31605,-3.87629 0,0 -2.2e-4,-2e-4 -2.2e-4,-2e-4 -2.34548,-2.01869 -4.11683,-4.64156 -5.13212,-7.54909 -1.01106,-2.90342 -1.26536,-6.03128 -0.76424,-9.04936 1.03339,-6.04388 5.00816,-11.31567 10.40134,-14.12029 5.37263,-2.76852 11.7847,-3.06846 17.41244,-1.02138 3.13311,1.14842 5.68124,2.76819 8.16012,3.5556 3.69082,1.2532 7.92814,0.98509 11.94671,-0.0793 4.02754,-1.08225 7.88861,-3.07974 11.76244,-5.25258 0,0 2.2e-4,-1.3e-4 2.2e-4,-1.3e-4 3.85585,-2.18314 7.76512,-4.59337 12.04728,-6.54363 4.27783,-1.96695 9.01873,-3.38045 13.99577,-3.41533 0,0 2.9e-4,0 2.9e-4,0 7.37225,0.019 14.51259,3.31487 19.46592,8.70928 0,0 2e-4,2.1e-4 2e-4,2.1e-4 4.91896,5.37739 7.60884,12.55897 7.69589,19.7948 0.057,5.94384 -1.50431,11.74014 -3.99774,16.96592 -2.47935,5.21082 -5.77844,9.89638 -9.32337,14.24656 -14.60668,18.04121 -35.00798,32.2826 -58.24323,36.67711 -11.55613,2.16697 -23.66841,1.80562 -35.06676,-1.49317 -11.3593,-3.28939 -21.92548,-9.56176 -30.01598,-18.3321 -8.02489,-8.77716 -13.21397,-19.31025 -18.93615,-29.1056 0,0 -1.3e-4,-2.3e-4 -1.3e-4,-2.3e-4 -3.51958,-5.86792 -7.24719,-11.62511 -12.63259,-14.74688 0,0 -2.1e-4,-1.3e-4 -2.1e-4,-1.3e-4 -2.65909,-1.57309 -5.66575,-2.56648 -8.60071,-2.5023 0,0 -2.3e-4,10e-6 -2.3e-4,10e-6 -2.90295,0.0613 -5.85279,1.09054 -7.80496,3.03526 0,0 -1.6e-4,1.5e-4 -1.6e-4,1.5e-4 -1.28919,1.26986 -2.24115,2.91278 -2.49613,4.59459 -0.2588,1.65615 0.0775,3.47226 1.01169,4.73554 0.70783,1.02359 1.85149,1.82302 3.09953,2.26377 1.25659,0.44676 2.70428,0.50716 4.09588,0.25457 2.79926,-0.45771 5.38769,-2.47313 7.34544,-4.93684 1.96421,-2.50466 3.25219,-5.65993 4.43269,-8.97097 0,0 9e-5,-2.5e-4 9e-5,-2.5e-4 1.15414,-3.3176 2.1807,-6.87512 3.76164,-10.38587 4.27973,-9.46407 12.60785,-17.12332 22.72711,-20.03717 5.04641,-1.43636 10.44194,-1.65509 15.6078,-0.54166 5.16054,1.11489 10.02637,3.57596 13.95446,7.15949 3.92247,3.58309 6.83099,8.25963 8.24061,13.42062 0,0 8e-5,3e-4 8e-5,3e-4 1.40407,5.15823 1.2533,10.71925 -0.51813,15.8026 -1.77589,5.07814 -5.16824,9.55962 -9.65051,12.60118 -4.48396,3.03358 -9.96586,4.5192 -15.39893,4.0814 -4.77113,-0.39087 -9.39216,-2.28538 -13.04389,-5.43926 -3.35062,-2.91128 -5.77409,-6.79954 -6.94513,-11.06651 0,0 -9e-5,-3e-4 -9e-5,-3e-4 -1.16465,-4.26074 -1.07814,-8.80824 0.20674,-13.01948 0,0 10e-5,-3e-4 10e-5,-3e-4 1.28636,-4.20315 3.72542,-8.00332 6.97417,-10.94287 3.24569,-2.93262 7.23605,-4.97666 11.48973,-5.93271 4.24763,-0.95211 8.69749,-0.82475 12.88038,0.32617 0,0 2.9e-4,8e-5 2.9e-4,8e-5 4.17595,1.15119 8.04271,3.29302 11.25001,6.1824 6.40019,5.79957 9.92794,14.3706 9.77351,22.95352 -0.12123,7.08482 -2.69664,14.09411 -7.33081,19.51993 0,0 -2e-4,2.3e-4 -2e-4,2.3e-4 -4.6385,5.41454 -11.25825,9.06394 -18.38055,9.96467 -9.1445,1.11215 -18.55814,-2.44789 -24.79039,-9.2088 -6.18709,-6.75594 -8.98224,-16.27443 -7.60217,-25.3124 1.39819,-9.00244 6.78437,-17.16754 14.39875,-22.13374 0,0 2.6e-4,-1.7e-4 2.6e-4,-1.7e-4 7.59882,-4.93463 17.10197,-6.60254 25.94571,-4.73118 5.88693,1.25396 11.38491,3.97829 16.02961,7.72235 4.63453,3.73656 8.42399,8.42401 11.25432,13.59981 4.50535,8.14038 6.61858,17.89882 4.62061,27.25841 -1.01768,4.67105 -3.10531,9.13841 -6.20216,12.87084 -3.09965,3.73248 -7.21757,6.6395 -11.88778,8.18763 -7.4614,2.4203 -15.8145,1.13197 -22.30997,-3.15193 0,0 -2.6e-4,-1.7e-4 -2.6e-4,-1.7e-4 -6.45493,-4.28171 -10.88529,-11.20317 -12.35357,-18.74134 0,0 -6e-5,-3.1e-4 -6e-5,-3.1e-4 -1.22331,-6.24858 -0.45696,-12.84717 2.22917,-18.64782 2.68982,-5.79228 7.26268,-10.66036 12.92505,-13.66772 4.76437,-2.52731 10.24195,-3.68571 15.65396,-3.2063 5.41028,0.48438 10.64905,2.63822 14.80576,6.19645 4.15179,3.56299 7.09554,8.48106 8.19209,13.88138 0,0 7e-5,3.2e-4 7e-5,3.2e-4 1.08772,5.40204 0.25003,11.14233 -2.43503,15.99922 -3.66835,6.43349 -9.9932,10.71754 -16.65202,12.98926 -6.60335,2.2874 -13.41975,2.99388 -19.97203,3.68223 -14.32637,1.5551 -28.92352,3.40277 -43.68182,2.73187 -9.64673,-0.42387 -19.44326,-2.05854 -28.59339,-5.47024 -4.84032,-1.80476 -9.49523,-4.10509 -13.84931,-6.98263 -5.07109,-3.36006 -9.69276,-7.56305 -13.24008,-12.6605 -3.5595,-5.11132 -5.91145,-11.16081 -6.33197,-17.49906 -0.42347,-7.20935 1.66443,-14.31432 5.25509,-20.3599 0,0 1.5e-4,-2.7e-4 1.5e-4,-2.7e-4 3.58251,-6.04201 8.48266,-11.09745 13.83869,-15.33282 10.7235,-8.48645 23.02808,-14.00282 33.4769,-21.53246 0,0 2.2e-4,-1.7e-4 2.2e-4,-1.7e-4 9.84029,-7.06655 18.51326,-16.18185 28.35355,-23.2484 0,0 2.4e-4,-1.8e-4 2.4e-4,-1.8e-4 5.0906,-3.67413 10.63545,-6.89559 16.68983,-9.04573 0,0 2.8e-4,-10e-5 2.8e-4,-10e-5 6.06941,-2.16031 12.67589,-3.12774 19.20472,-2.26682 7.49756,1.00264 14.64842,4.57407 19.78219,10.21915 5.14469,5.67525 7.99265,13.37012 7.4921,21.0775 0,0 -2e-5,3.1e-4 -2e-5,3.1e-4 -0.47039,6.67078 -3.42281,13.01289 -8.04703,17.75431 -4.63003,4.73633 -10.76701,7.82324 -17.2372,8.89557 -7.27326,1.18641 -14.72795,-0.0661 -21.3221,-2.9796 -6.59339,-2.91024 -12.35578,-7.318 -17.23088,-12.40134 -3.75432,-3.87944 -7.11209,-8.30587 -9.45032,-13.35962 0,0 -1.3e-4,-2.8e-4 -1.3e-4,-2.8e-4 -2.35177,-5.07058 -3.52281,-10.8088 -2.84458,-16.52223 0.68474,-5.74911 3.46373,-11.30479 8.07128,-15.06358 2.31447,-1.8667 5.05808,-3.20995 8.00511,-3.84613 2.95348,-0.63547 6.06665,-0.5143 8.98449,0.41438 4.70527,1.55054 8.50228,5.04349 10.66455,9.33416 2.14722,4.27273 2.78412,9.10421 2.17884,13.69144 -0.73659,5.70185 -3.25611,11.07958 -7.04688,15.33868 0,0 -2e-4,2.3e-4 -2e-4,2.3e-4 -3.79584,4.25842 -8.7686,7.36114 -14.18297,8.99958 0,0 -2.9e-4,9e-5 -2.9e-4,9e-5 -5.41878,1.6368 -11.20266,1.82882 -16.69699,0.68287 -5.49816,-1.14852 -10.66608,-3.58956 -15.0828,-6.98131 0,0 -2.3e-4,-1.9e-4 -2.3e-4,-1.9e-4 -4.44464,-3.39926 -8.16206,-7.80088 -10.61344,-12.90087 -2.45633,-5.11447 -3.54506,-10.90572 -2.90858,-16.60601 0,0 4e-5,-3.1e-4 4e-5,-3.1e-4 0.64302,-5.71786 3.09826,-11.22806 7.10283,-15.44304 0,0 2.1e-4,-2.3e-4 2.1e-4,-2.3e-4 4.02593,-4.22481 9.57306,-6.95362 15.45156,-7.38368 4.38817,-0.29808 8.7859,0.68928 12.6281,2.72528 3.84083,2.03837 7.0884,5.05471 9.46034,8.63902 2.35332,3.53793 3.85992,7.65327 4.23827,11.93632 0.37664,4.2943 -0.44175,8.69235 -2.45947,12.55784 -2.02798,3.87462 -5.27019,7.09362 -9.25096,9.01904 0,0 -2.9e-4,1.4e-4 -2.9e-4,1.4e-4 -3.9974,1.92454 -8.63856,2.42159 -12.9736,1.27444 0,0 -3.1e-4,-9e-5 -3.1e-4,-9e-5 -4.42568,-1.21358 -8.22897,-4.02735 -10.81835,-7.67022 -2.57989,-3.63465 -4.00241,-7.92973 -4.35063,-12.25012 -0.63873,-8.63246 2.49733,-16.88568 6.77633,-23.84986 3.05917,-5.08423 6.78922,-9.84883 11.32488,-13.83286 0,0 2.2e-4,-1.9e-4 2.2e-4,-1.9e-4 4.547,-3.99679 9.94411,-7.13086 15.87336,-8.78143 7.49995,-2.07263 15.66768,-1.57273 22.81662,1.55926 7.16921,3.15194 13.107,8.94667 16.29686,16.12387 1.69759,3.88937 2.56799,7.91934 3.29796,11.78028 0,0 5e-5,2.7e-4 5e-5,2.7e-4 0.7568,3.87669 1.39986,7.63349 2.63998,11.05272 1.25331,3.39304 3.02355,6.56312 5.60345,8.64868 1.27816,1.05291 2.72697,1.87543 4.2459,2.31005 1.51373,0.4336 3.12319,0.53099 4.58411,0.19272 1.462,-0.3171 2.87032,-1.08595 4.03741,-2.11993 1.17292,-1.03785 2.10995,-2.39703 2.77184,-3.88669 1.35604,-2.97345 1.43491,-6.57652 0.79293,-10.03305 -1.27108,-6.98494 -5.98083,-13.3548 -9.29863,-20.77959 -5.61003,-12.36201 -6.45984,-27.11647 -0.80886,-39.62144 2.8571,-6.26458 7.33567,-11.80141 13.0144,-15.76483 5.69952,-3.97356 12.57327,-6.25307 19.55899,-6.27813 10.16272,0.0123 19.95285,4.85911 26.44232,12.51585 5.3539,6.32873 8.47963,14.32957 9.17088,22.49246 0.68942,8.17762 -0.96746,16.42263 -4.40503,23.7663 -6.94291,14.7167 -20.44039,25.376 -35.22738,31.19265 0,0 -2.6e-4,1e-4 -2.6e-4,1e-4 -6.48091,2.60798 -13.58748,4.38577 -20.86131,3.82764 -3.6469,-0.29382 -7.28294,-1.2369 -10.61405,-2.92931 -3.34125,-1.6975 -6.31275,-4.19008 -8.48699,-7.33562 -2.66474,-3.92523 -3.9406,-8.58165 -4.00745,-13.16893 -0.0698,-4.58063 0.92745,-9.04817 2.52923,-13.16886 0,0 1.1e-4,-2.6e-4 1.1e-4,-2.6e-4 3.21398,-8.23155 8.47012,-15.14533 12.76951,-22.11633 3.53078,-5.76394 6.6841,-12.01743 11.15222,-17.66608 2.23904,-2.82601 4.83237,-5.45418 7.85558,-7.61225 0,0 2.3e-4,-1.7e-4 2.3e-4,-1.7e-4 3.03072,-2.16648 6.52111,-3.79258 10.28194,-4.52816 5.78732,-1.08138 11.76189,0.056 16.83138,2.73483 0,0 2.5e-4,1.3e-4 2.5e-4,1.3e-4 5.06357,2.67556 9.23536,6.69662 12.39832,11.28009 0,0 1.6e-4,2.3e-4 1.6e-4,2.3e-4 6.29704,9.19092 8.85219,20.05194 11.07959,30.3202 0,0 6e-5,2.5e-4 6e-5,2.5e-4 2.8671,12.8694 5.67244,25.97561 5.50328,39.42927 -0.14469,13.54995 -3.79286,27.50462 -12.5716,38.13714 -7.31796,8.72956 -17.62541,14.47162 -28.44682,17.20474 0,0 -2.6e-4,6e-5 -2.6e-4,6e-5 -10.8579,2.74695 -22.16509,2.70907 -33.01731,1.12891 -17.61774,-2.49089 -35.11525,-9.42472 -47.56588,-22.35466 -3.5198,-3.67005 -6.59908,-7.84024 -8.85177,-12.49205 -2.26183,-4.6672 -3.61922,-9.83022 -3.66993,-15.0975 0,0 0,-2.7e-4 0,-2.7e-4 -0.0505,-5.28967 1.31424,-10.62899 4.16546,-15.17741 2.86981,-4.57002 7.28534,-8.17645 12.49056,-9.86202 4.17948,-1.31007 8.57693,-1.35635 12.69929,-0.58669 9.33633,1.72196 17.66625,7.32677 23.12338,14.93097 5.46797,7.63247 8.09766,17.02783 7.90972,26.28204 -0.19097,9.28567 -3.07442,18.34692 -7.76584,26.20473 -4.71009,7.88992 -11.14073,14.59858 -18.40485,20.00041 -5.13396,3.84258 -10.84586,7.11047 -17.13128,8.99409 -6.31974,1.89953 -13.23538,2.21902 -19.68277,0.25624 -5.3348,-1.66035 -10.08403,-4.83879 -13.77348,-8.91697 0,0 -1.7e-4,-1.9e-4 -1.7e-4,-1.9e-4 -3.69549,-4.08609 -6.35133,-8.99508 -7.95609,-14.17325 -3.19003,-10.40019 -2.33301,-21.51952 0.51606,-31.65977 4.90049,-17.51885 15.11469,-32.83567 25.91094,-46.77662 11.77999,-15.33907 25.22003,-30.10232 42.78602,-38.6751 8.86592,-4.30664 18.68112,-6.82468 28.582,-6.63324 9.97679,0.19321 19.95295,3.308 27.92236,9.37664 0,0 1.9e-4,1.5e-4 1.9e-4,1.5e-4 5.68199,4.34444 10.21199,10.14053 12.99977,16.70561 2.79922,6.5989 3.79658,13.92101 2.81743,21.00066 -1.06526,7.56767 -4.31134,14.66326 -8.85843,20.63003 -4.56465,5.99217 -10.35017,10.89779 -16.62765,14.80069 0,0 -2e-4,1.3e-4 -2e-4,1.3e-4 -12.62515,7.82823 -27.00443,11.82491 -40.77259,15.67038 -7.82523,2.21926 -15.88658,4.47055 -24.33744,4.57541 -4.24296,0.045 -8.54309,-0.50938 -12.6364,-1.89208 0,0 -2.3e-4,-7e-5 -2.3e-4,-7e-5 -4.11195,-1.38759 -7.96913,-3.66927 -11.05227,-6.8286 -2.88045,-2.98244 -4.95933,-6.6155 -6.25364,-10.45283 -1.29781,-3.84371 -1.86032,-7.86019 -1.89725,-11.81988 -0.0607,-7.93896 1.79901,-15.5891 3.62725,-22.91791 0,0 5e-5,-2.1e-4 5e-5,-2.1e-4 1.65784,-6.78403 3.41833,-13.76081 6.88276,-20.16789 0,0 1e-4,-2e-4 1e-4,-2e-4 1.74506,-3.21291 3.94745,-6.22926 6.67135,-8.77676 2.73449,-2.55915 6.02025,-4.58762 9.66314,-5.72497 4.54077,-1.38827 9.39515,-1.31169 13.86774,-0.0767 0,0 2.2e-4,6e-5 2.2e-4,6e-5 4.48064,1.23699 8.56534,3.53757 12.05323,6.4425 6.98078,5.8494 11.61622,13.74886 15.37495,21.56871 4.14642,8.52322 7.62351,17.44103 9.43087,26.80489 1.82824,9.44612 1.82451,19.34258 -0.89307,28.62225 -1.21946,4.16378 -3.02753,8.21323 -5.60486,11.80328 -2.58971,3.61045 -6.00676,6.68878 -10.06645,8.67692 -4.08648,2.00024 -8.81184,2.76256 -13.34954,1.87613 0,0 -2.3e-4,-5e-5 -2.3e-4,-5e-5 -4.57387,-0.90055 -8.77929,-3.59207 -11.34791,-7.56308 0,0 -1.3e-4,-1.9e-4 -1.3e-4,-1.9e-4 -2.18306,-3.46253 -2.99288,-7.58241 -2.62328,-11.51762 0,0 2e-5,-2.3e-4 2e-5,-2.3e-4 0.36797,-3.93409 1.77014,-7.64496 3.72968,-10.90974 3.93872,-6.52446 9.71219,-11.37836 14.79693,-16.25581 5.6612,-5.48702 11.0227,-11.57418 17.97505,-16.06217 3.49276,-2.24788 7.38194,-4.00106 11.54736,-4.82992 4.19169,-0.83631 8.64816,-0.6273 12.72779,0.91914 3.65298,1.41457 6.80695,3.83785 9.23154,6.78893 0,0 1.4e-4,1.7e-4 1.4e-4,1.7e-4 2.4303,2.95673 4.16826,6.3802 5.31484,9.92844 2.28313,7.12566 2.38393,14.57953 2.20875,21.66989 -0.16661,8.07089 -0.62614,16.18309 -2.35519,24.14974 -1.73794,8.04064 -4.87699,15.88392 -9.96147,22.43738 -5.14096,6.6311 -12.41455,11.72819 -20.6703,13.49669 -4.16011,0.8794 -8.51153,0.87055 -12.65832,-0.13225 -4.16946,-1.00943 -8.08736,-3.04931 -11.24663,-5.97151 -3.34428,-3.12757 -5.70803,-7.06386 -7.35854,-11.13834 0,0 -8e-5,-1.8e-4 -8e-5,-1.8e-4 -1.66343,-4.08437 -2.70672,-8.30806 -3.67319,-12.42217 -1.05759,-4.44952 -2.07488,-8.99479 -2.35671,-13.71119 -0.29382,-4.748 0.27677,-9.67053 2.28643,-14.13801 2.02866,-4.51824 5.72489,-8.3852 10.48923,-10.15168 2.3992,-0.87262 5.02047,-1.15031 7.57206,-0.72512 2.56425,0.42945 4.99833,1.60131 6.91166,3.4093 0,0 1.5e-4,1.5e-4 1.5e-4,1.5e-4 1.86918,1.79961 3.13212,4.07668 3.82725,6.45413 0.69805,2.37612 0.90182,4.81348 0.82265,7.16929 -0.15557,4.72948 -1.26763,9.13555 -1.54353,13.38103 0,0 -10e-6,1.8e-4 -10e-6,1.8e-4 -0.13374,2.13164 -0.0858,4.23214 0.35859,6.20172 0,0 3e-5,1.6e-4 3e-5,1.6e-4 0.44775,1.96819 1.25161,3.83845 2.49394,5.28286 1.23647,1.43694 2.90585,2.53026 4.66727,2.83209 0,0 1.4e-4,2e-5 1.4e-4,2e-5 1.73896,0.30548 3.67828,-0.10219 4.92325,-1.20457 1.31297,-1.04495 2.01502,-2.90764 2.30681,-4.80893 0.27499,-1.93819 0.0233,-4.0462 -0.20415,-6.25485 -0.2555,-2.21964 -0.48256,-4.59526 -0.13617,-7.06515 0,0 3e-5,-2e-4 3e-5,-2e-4 0.33091,-2.5086 1.48375,-5.04272 3.61411,-6.80904 1.32233,-1.04175 2.90499,-1.6622 4.52954,-1.83789 1.62303,-0.17427 3.24431,0.0614 4.72224,0.62731 2.95093,1.15836 5.24087,3.41802 6.70808,6.01054 0,0 10e-5,1.7e-4 10e-5,1.7e-4 1.48926,2.58672 2.29716,5.50906 2.4269,8.44509 0.12946,2.94557 -0.39743,5.87824 -1.45151,8.58233 -2.1379,5.43442 -6.24755,9.83836 -11.06207,12.81449 -4.84261,2.99785 -10.30822,4.68837 -15.75013,5.58133 -5.47837,0.90525 -10.98822,1.08288 -16.35926,1.20815 -11.21446,0.27889 -22.39561,0.33869 -33.37659,-1.88908 -11.18715,-2.25613 -22.00193,-7.14779 -29.80954,-15.39626 -6.59568,-6.97099 -10.65645,-16.49888 -9.9524,-26.04374 0.37213,-4.83615 1.99718,-9.56918 4.79061,-13.52579 2.82408,-3.99614 6.84631,-7.11861 11.4539,-8.73081 3.95026,-1.36747 8.20317,-1.60083 12.23692,-0.88657 0,0 1.6e-4,3e-5 1.6e-4,3e-5 4.06241,0.7195 7.89321,2.34906 11.27496,4.56325 0,0 1.3e-4,9e-5 1.3e-4,9e-5 6.82424,4.48973 11.79781,11.13316 15.50938,18.03791 3.01866,5.54889 5.38457,11.56059 5.99372,17.91713 0.62602,6.46349 -0.83701,13.23502 -4.82698,18.4146 -2.95043,3.79418 -7.21635,6.50524 -11.90139,7.45552 0,0 -1.5e-4,3e-5 -1.5e-4,3e-5 -4.74601,0.95571 -9.80338,0.0215 -13.81617,-2.63343 -4.06122,-2.69887 -6.86594,-7.12047 -7.48277,-11.92337 -0.61163,-4.87267 1.12508,-9.91577 4.63672,-13.29378 3.37864,-3.20205 8.08363,-4.68992 12.60276,-4.35837 4.55891,0.33982 8.82937,2.38015 12.11093,5.38717 2.96978,2.70677 5.18796,6.20644 6.28177,10.05208 0,0 4e-5,1.4e-4 4e-5,1.4e-4 1.10456,3.89173 1.00935,8.09205 -0.33764,11.88251 -1.36699,3.83629 -4.02696,7.16676 -7.48305,9.27224 -3.50364,2.12841 -7.7583,2.91092 -11.74898,2.10756 -3.96439,-0.82104 -7.46267,-3.1198 -9.97892,-6.13879 -2.53846,-3.04578 -4.13263,-6.73274 -4.92567,-10.4944 -1.58548,-7.61883 -0.18213,-15.38433 1.35493,-22.52829 2.52398,-12.02844 5.65752,-23.81575 12.62482,-33.60291 3.58454,-5.0205 8.14577,-9.31235 13.50453,-12.18815 5.49432,-2.94869 11.80823,-4.28699 17.88454,-3.47109 7.29132,1.01115 13.79152,5.03499 18.53535,10.23168 4.88916,5.35205 8.13097,11.89218 10.31721,18.45951 4.46991,13.33654 4.82715,27.55192 0.4339,39.9329 -2.32504,6.53585 -5.94461,12.4631 -10.58082,17.27132 -4.82925,5.00777 -10.75573,8.75705 -17.10245,10.83254 -7.58783,2.4752 -15.65632,2.52421 -22.94753,0.67174 -7.73631,-1.96662 -14.61466,-6.01667 -20.03778,-11.17798 -6.84466,-6.51861 -11.39837,-14.75304 -13.95936,-22.98537 -2.81433,-9.04599 -3.37917,-18.30814 -2.69354,-26.76765 1.74666,-21.60469 11.55953,-38.90339 21.78155,-50.09748 12.15109,-13.30461 25.92942,-19.66993 34.2258,-22.5824 8.77609,-3.08087 13.58247,-3.48232 13.59572,-3.40799 z" fill="#000814" transform="translate(-469.116 -401.602)"/></g></svg>