<?xml version="1.0" encoding="UTF-8"?><svg xmlns="http://www.w3.org/2000/svg" xmlns:xlink="http://www.w3.org/1999/xlink" height="615.4" preserveAspectRatio="xMidYMid meet" version="1.0" viewBox="0.0 0.0 687.1 615.4" width="687.1" zoomAndPan="magnify"><defs><clipPath id="a"><path d="M 0 0 L 687.121094 0 L 687.121094 615.378906 L 0 615.378906 Z M 0 0"/></clipPath><clipPath id="b"><path d="M 162 161 L 687.121094 161 L 687.121094 615.378906 L 162 615.378906 Z M 162 161"/></clipPath></defs><g><g clip-path="url(#a)" id="change1_1"><path d="M 684.925781 457.371094 C 675.660156 489.683594 641.238281 507.039062 610.046875 495.953125 C 600.226562 492.457031 591.933594 486.585938 585.582031 479.199219 C 579.253906 471.824219 574.867188 462.9375 572.851562 453.402344 C 572.851562 453.402344 560.800781 412.5 524.597656 414.0625 C 518.476562 431.257812 510.195312 447.066406 500.15625 461.382812 C 498.695312 463.464844 498.195312 466.136719 499.039062 468.546875 C 499.53125 469.90625 500.113281 471.214844 500.738281 472.484375 C 504.25 479.316406 509.367188 485.292969 512.238281 492.425781 L 512.28125 492.542969 C 515.234375 499.910156 507.898438 507.191406 500.546875 504.261719 L 500.433594 504.199219 C 493.324219 501.316406 487.339844 496.191406 480.511719 492.664062 L 480.46875 492.628906 C 477.511719 491.121094 473.921875 491.804688 471.472656 494.023438 C 457.214844 507.015625 441.160156 517.800781 423.914062 526.140625 C 423.199219 540.945312 437.59375 546.476562 441.503906 547.703125 C 442.101562 547.890625 442.464844 547.976562 442.464844 547.976562 C 451.007812 549.371094 458.6875 555.023438 462.21875 563.644531 C 467.996094 577.707031 460.425781 593.925781 445.378906 598.242188 C 433.925781 601.539062 421.371094 596.242188 415.726562 585.753906 C 412.238281 579.269531 411.789062 572.085938 413.777344 565.742188 C 414.628906 563.027344 415.894531 560.492188 417.585938 558.191406 C 417.585938 558.191406 427.929688 541.484375 415.722656 529.882812 C 394.058594 539.195312 370.6875 544.671875 346.671875 545.785156 C 343.105469 545.976562 339.824219 548.167969 338.75 551.601562 L 338.734375 551.652344 C 337.480469 555.8125 337.191406 560.25 335.5625 564.269531 L 335.539062 564.34375 C 333.824219 568.492188 327.984375 568.570312 326.15625 564.464844 L 326.148438 564.410156 C 324.378906 560.449219 323.988281 556.011719 322.578125 551.902344 C 322.269531 550.96875 321.882812 550.035156 321.398438 549.148438 C 320.089844 546.644531 317.550781 545.0625 314.746094 544.734375 C 302.464844 543.320312 290.132812 540.738281 277.902344 536.90625 C 265.171875 532.914062 253.121094 527.75 241.851562 521.601562 C 235.398438 525.652344 231.933594 530.953125 230.234375 536.367188 C 226.34375 548.785156 231.800781 561.78125 231.800781 561.78125 C 237.46875 572.773438 237.449219 586.355469 230.574219 597.6875 C 219.773438 615.53125 196.1875 620.867188 178.6875 609.125 C 162.617188 598.328125 157.742188 576.195312 167.773438 559.648438 C 171.203125 553.96875 175.933594 549.5625 181.355469 546.550781 C 186.769531 543.558594 192.875 541.960938 199.0625 541.9375 C 199.0625 541.9375 227.929688 539.542969 230.046875 514.578125 C 220.367188 508.375 211.3125 501.425781 203.003906 493.769531 C 199.050781 490.175781 195.277344 486.425781 191.660156 482.515625 C 188.816406 479.476562 184.46875 478.222656 180.5625 479.667969 C 180.46875 479.714844 180.355469 479.734375 180.261719 479.78125 C 175.695312 481.570312 171.582031 484.421875 166.914062 485.785156 L 166.828125 485.808594 C 161.96875 487.191406 157.832031 482.101562 160.175781 477.625 L 160.199219 477.554688 C 162.492188 473.242188 166.113281 469.796875 168.789062 465.6875 C 169.1875 465.078125 169.546875 464.433594 169.890625 463.753906 C 171.546875 460.476562 171.304688 456.578125 169.351562 453.453125 C 167.152344 450.015625 165.085938 446.515625 163.132812 442.96875 C 161.269531 439.558594 157.597656 437.488281 153.71875 437.664062 C 153.078125 437.699219 152.433594 437.757812 151.785156 437.816406 C 144.238281 438.671875 136.898438 441.292969 129.308594 441.453125 L 129.183594 441.441406 C 121.335938 441.574219 117.140625 432.246094 122.488281 426.460938 L 122.566406 426.382812 C 127.742188 420.804688 134.558594 417.101562 140.234375 412.019531 C 141.410156 410.949219 142.53125 409.78125 143.554688 408.53125 C 145.671875 405.949219 146.296875 402.453125 145.425781 399.222656 C 142.082031 386.914062 139.925781 374.246094 139.011719 361.367188 C 138.191406 361.058594 137.414062 360.789062 136.601562 360.535156 C 108.757812 351.808594 90.015625 380.78125 90.015625 380.78125 C 82.355469 394.953125 67.710938 404.921875 50.453125 405.851562 C 22.25 407.378906 -1.574219 384.148438 0.0820312 355.136719 C 1.34375 332.648438 18.75 313.78125 41.046875 310.636719 C 48.441406 309.601562 55.589844 310.269531 62.167969 312.335938 C 72.46875 315.5625 81.308594 322.183594 87.339844 330.929688 C 87.339844 330.929688 110.53125 359.511719 138.5 344.792969 C 138.726562 325.855469 141.652344 306.664062 147.605469 287.664062 C 149.765625 280.773438 152.300781 274.105469 155.117188 267.632812 C 156.292969 264.964844 155.652344 261.828125 153.484375 259.894531 L 153.433594 259.878906 C 150.175781 256.996094 146.242188 254.925781 143.253906 251.765625 L 143.214844 251.726562 C 140.128906 248.457031 142.457031 243.109375 146.953125 243.132812 L 147.007812 243.125 C 151.363281 243.179688 155.546875 244.621094 159.882812 245.066406 C 161.078125 245.179688 162.3125 245.171875 163.527344 245.054688 C 165.664062 244.835938 167.570312 243.597656 168.691406 241.777344 C 182.675781 219.375 200.765625 200.328125 221.652344 185.40625 C 219.914062 172.738281 210.570312 167.296875 203.109375 164.960938 C 197.765625 163.285156 193.394531 163.199219 193.394531 163.199219 C 182.757812 163.816406 172.027344 159.039062 165.496094 149.636719 C 155.257812 134.933594 159.203125 114.570312 174.4375 104.8125 C 188.265625 95.949219 207.15625 99.410156 216.960938 112.566406 C 223.296875 121.09375 224.726562 131.730469 221.800781 141.074219 C 221.453125 142.171875 221.039062 143.246094 220.578125 144.304688 C 220.578125 144.304688 212.171875 168.375 231.800781 178.664062 C 250.757812 166.800781 271.621094 158.128906 293.550781 153.140625 C 296.652344 152.4375 299.253906 150.242188 300.273438 147.234375 C 300.570312 146.363281 300.847656 145.480469 301.070312 144.605469 C 302.910156 137.144531 302.992188 129.289062 305.507812 122.015625 L 305.542969 121.894531 C 308.175781 114.421875 318.472656 113.71875 322.101562 120.773438 L 322.144531 120.890625 C 325.625 127.742188 326.746094 135.53125 329.585938 142.675781 L 329.609375 142.765625 C 330.933594 146.058594 334.09375 148.253906 337.625 148.261719 C 352.855469 148.296875 368.261719 150.085938 383.601562 153.769531 C 391.800781 147.332031 396.363281 140.199219 398.585938 133.121094 C 405.601562 110.734375 389.167969 88.644531 389.167969 88.644531 C 377.339844 75.09375 372.648438 55.898438 378.421875 37.46875 C 387.84375 7.40625 421.402344 -8.441406 451.117188 4.589844 C 474.082031 14.691406 487 40.054688 481.691406 64.597656 C 481.324219 66.261719 480.898438 67.882812 480.402344 69.457031 C 474.636719 87.859375 459.804688 100.9375 442.355469 105.3125 C 442.355469 105.3125 397.117188 120.511719 409.78125 161.972656 C 422.871094 167.070312 435.144531 173.429688 446.53125 180.875 C 448.226562 181.980469 450.398438 181.980469 452.070312 180.828125 L 452.101562 180.8125 C 456.753906 177.585938 460.648438 173.253906 465.554688 170.472656 L 465.648438 170.421875 C 470.757812 167.574219 476.796875 172.1875 475.359375 177.863281 L 475.328125 177.960938 C 473.925781 183.4375 470.75 188.308594 468.839844 193.652344 L 468.804688 193.769531 C 468.128906 195.679688 468.699219 197.769531 470.210938 199.136719 C 471.601562 200.382812 472.960938 201.644531 474.316406 202.910156 C 483.355469 211.5 491.542969 220.875 498.757812 230.9375 C 513.671875 228.960938 520.015625 217.492188 522.699219 208.933594 C 524.394531 203.523438 524.632812 199.25 524.632812 199.25 C 524.339844 186.90625 530.265625 174.675781 541.421875 167.492188 C 558.925781 156.167969 582.46875 161.660156 593.101562 179.863281 C 602.828125 196.609375 597.554688 218.621094 581.292969 229.15625 C 571.761719 235.335938 560.421875 236.519531 550.359375 233.363281 C 548.667969 232.835938 547.011719 232.183594 545.417969 231.421875 C 545.417969 231.421875 518.960938 221.195312 506.003906 241.820312 C 513.023438 253.082031 518.976562 265 523.636719 277.457031 C 524.578125 279.953125 526.839844 281.683594 529.484375 281.933594 C 529.738281 281.960938 530.015625 281.996094 530.273438 282 C 532.328125 282.113281 534.390625 282.019531 536.453125 281.925781 C 539.28125 281.800781 542.105469 281.671875 544.886719 282.074219 L 544.988281 282.082031 C 549.964844 282.828125 551.636719 289.191406 547.65625 292.289062 L 547.59375 292.320312 C 543.71875 295.324219 538.992188 296.957031 534.875 299.570312 L 534.835938 299.609375 C 532.570312 301.070312 531.457031 303.785156 532.035156 306.453125 C 533.519531 313.492188 534.605469 320.640625 535.320312 327.882812 C 535.496094 329.664062 536.632812 331.222656 538.332031 331.808594 C 538.492188 331.886719 538.636719 331.929688 538.800781 331.980469 C 546.019531 334.347656 553.78125 334.976562 560.765625 338.003906 L 560.886719 338.039062 C 568.070312 341.183594 568.011719 351.398438 560.761719 354.46875 L 560.671875 354.519531 C 553.65625 357.425781 545.894531 357.976562 538.632812 360.257812 L 538.601562 360.273438 C 536.855469 360.828125 535.667969 362.367188 535.496094 364.171875 C 534.589844 374.828125 532.8125 385.507812 530.097656 396.175781 C 535.191406 400.886719 540.605469 403.839844 546.015625 405.535156 C 569.425781 412.871094 593.019531 396.652344 593.019531 396.652344 C 608.941406 383.785156 631.300781 379.691406 651.84375 388.328125 C 678.515625 399.542969 692.910156 429.554688 684.925781 457.371094" fill="#4dc3f2"/></g><g id="change2_1"><path d="M 479.273438 340.933594 C 468.699219 373.042969 434.101562 390.503906 401.992188 379.929688 C 369.882812 369.355469 352.421875 334.757812 362.996094 302.648438 C 373.566406 270.539062 408.167969 253.078125 440.277344 263.652344 C 472.386719 274.222656 489.847656 308.824219 479.273438 340.933594" fill="#fff"/></g><g id="change3_1"><path d="M 450.261719 335.6875 C 441.109375 351.871094 420.566406 357.574219 404.382812 348.421875 C 388.195312 339.269531 382.496094 318.730469 391.648438 302.546875 C 400.800781 286.359375 421.339844 280.65625 437.523438 289.808594 C 453.710938 298.960938 459.410156 319.503906 450.261719 335.6875" fill="#024562"/></g><g id="change2_2"><path d="M 417.621094 312.078125 C 411.425781 316.972656 403.734375 317.558594 400.4375 313.390625 C 397.144531 309.21875 399.496094 301.871094 405.695312 296.976562 C 411.890625 292.082031 419.585938 291.496094 422.878906 295.667969 C 426.171875 299.835938 423.820312 307.1875 417.621094 312.078125" fill="#fff"/></g><g id="change2_3"><path d="M 322.914062 318.082031 C 314.621094 343.265625 287.488281 356.960938 262.304688 348.667969 C 237.121094 340.375 223.429688 313.238281 231.71875 288.054688 C 240.011719 262.875 267.148438 249.179688 292.332031 257.472656 C 317.515625 265.765625 331.207031 292.898438 322.914062 318.082031" fill="#fff"/></g><g id="change3_2"><path d="M 302.96875 315.175781 C 295.789062 327.871094 279.679688 332.34375 266.988281 325.164062 C 254.292969 317.984375 249.820312 301.878906 257 289.183594 C 264.175781 276.488281 280.285156 272.019531 292.980469 279.195312 C 305.675781 286.371094 310.144531 302.480469 302.96875 315.175781" fill="#024562"/></g><g id="change2_4"><path d="M 277.371094 296.660156 C 272.511719 300.5 266.476562 300.960938 263.894531 297.6875 C 261.3125 294.417969 263.15625 288.65625 268.015625 284.816406 C 272.875 280.980469 278.910156 280.519531 281.492188 283.789062 C 284.074219 287.058594 282.230469 292.824219 277.371094 296.660156" fill="#fff"/></g><g id="change2_5"><path d="M 392.359375 246.308594 C 385.769531 266.324219 364.203125 277.207031 344.1875 270.617188 C 324.175781 264.027344 313.292969 242.460938 319.882812 222.445312 C 326.472656 202.433594 348.039062 191.550781 368.050781 198.140625 C 388.066406 204.730469 398.949219 226.296875 392.359375 246.308594" fill="#fff"/></g><g id="change3_3"><path d="M 374.65625 243.433594 C 368.949219 253.523438 356.148438 257.078125 346.058594 251.371094 C 335.972656 245.667969 332.417969 232.867188 338.121094 222.777344 C 343.828125 212.691406 356.628906 209.136719 366.71875 214.839844 C 376.804688 220.542969 380.359375 233.347656 374.65625 243.433594" fill="#024562"/></g><g id="change2_6"><path d="M 354.3125 228.71875 C 350.449219 231.769531 345.65625 232.136719 343.601562 229.535156 C 341.550781 226.9375 343.015625 222.355469 346.878906 219.308594 C 350.738281 216.257812 355.535156 215.890625 357.589844 218.492188 C 359.640625 221.089844 358.175781 225.671875 354.3125 228.71875" fill="#fff"/></g><g id="change3_4"><path d="M 401.855469 450.476562 C 396.808594 459.730469 388.378906 466.988281 378.09375 469.15625 C 353.230469 474.378906 330.40625 450.96875 305.023438 451.597656 C 293.648438 451.882812 282.554688 457.046875 271.246094 455.777344 C 258.902344 454.398438 248.828125 444.773438 244.4375 433.054688 C 242.667969 428.339844 241.804688 423.25 242.121094 418.21875 C 243.136719 402.039062 254.191406 387.648438 268.445312 379.761719 C 269.53125 379.132812 270.652344 378.566406 271.789062 378.03125 C 274.304688 376.855469 276.855469 375.902344 279.394531 375.152344 C 288.761719 372.328125 298.261719 372.007812 307.945312 371.929688 C 309.550781 371.90625 311.148438 371.910156 312.773438 371.894531 L 312.800781 371.902344 C 316.734375 371.878906 320.675781 371.832031 324.675781 371.59375 C 327.078125 371.457031 329.523438 371.410156 331.953125 371.4375 C 335.445312 371.484375 338.933594 371.714844 342.394531 372.121094 C 348.65625 372.851562 354.859375 374.195312 360.847656 376.148438 C 362.390625 376.65625 363.890625 377.207031 365.410156 377.789062 C 369.167969 379.253906 372.824219 380.949219 376.289062 382.925781 C 377.160156 383.40625 378.023438 383.914062 378.855469 384.4375 C 385.34375 388.460938 391.222656 393.679688 395.898438 399.726562 C 402.371094 408.066406 406.59375 417.976562 407.105469 428.453125 C 407.472656 436.054688 405.542969 443.804688 401.855469 450.476562" fill="#024562"/></g><g id="change4_1"><path d="M 401.855469 450.484375 C 396.808594 459.738281 388.378906 466.996094 378.09375 469.164062 C 374.621094 469.882812 371.1875 470.0625 367.785156 469.808594 C 365.09375 469.621094 362.40625 469.171875 359.730469 468.515625 C 341.636719 464.183594 324.050781 451.128906 305.023438 451.605469 C 296.523438 451.824219 288.203125 454.738281 279.835938 455.703125 L 279.789062 455.6875 C 276.933594 456.023438 274.105469 456.105469 271.246094 455.785156 C 258.902344 454.40625 248.828125 444.78125 244.4375 433.0625 C 251.496094 423.230469 262.097656 415.898438 273.910156 413.210938 C 291.222656 409.265625 310.457031 415.476562 322.199219 428.792969 C 331.027344 418.675781 345.089844 415.492188 358.238281 418.066406 C 371.410156 420.648438 383.011719 428.660156 392.15625 438.488281 C 395.6875 442.265625 398.871094 446.300781 401.855469 450.484375" fill="#0e9fd0"/></g><g id="change2_7"><path d="M 367.785156 469.808594 L 359.730469 468.515625 C 341.636719 464.183594 324.050781 451.128906 305.023438 451.605469 C 296.523438 451.824219 288.203125 454.738281 279.835938 455.703125 L 279.789062 455.6875 C 279.789062 455.6875 320.445312 408.160156 367.785156 469.808594" fill="#fff"/></g><g id="change5_1"><path d="M 494.964844 441.566406 C 490.46875 455.785156 480.46875 465.296875 472.621094 462.816406 C 464.78125 460.335938 462.066406 446.804688 466.5625 432.585938 C 471.054688 418.371094 481.058594 408.859375 488.902344 411.339844 C 496.746094 413.816406 499.460938 427.351562 494.964844 441.566406" fill="#b1ecff"/></g><g id="change5_2"><path d="M 412.742188 18.492188 C 425.957031 11.585938 439.757812 11.894531 443.566406 19.183594 C 447.378906 26.476562 439.757812 37.984375 426.542969 44.890625 C 413.332031 51.800781 399.53125 51.488281 395.71875 44.199219 C 391.90625 36.910156 399.53125 25.398438 412.742188 18.492188" fill="#b1ecff"/></g><g id="change5_3"><path d="M 181.117188 112.339844 C 189.835938 107.78125 198.941406 107.988281 201.453125 112.796875 C 203.96875 117.605469 198.941406 125.203125 190.222656 129.757812 C 181.503906 134.316406 172.398438 134.113281 169.882812 129.300781 C 167.367188 124.492188 172.398438 116.898438 181.117188 112.339844" fill="#b1ecff"/></g><g id="change5_4"><path d="M 552.660156 176.082031 C 561.378906 171.523438 570.484375 171.730469 572.996094 176.539062 C 575.511719 181.347656 570.484375 188.941406 561.765625 193.5 C 553.046875 198.058594 543.941406 197.851562 541.425781 193.042969 C 538.910156 188.234375 543.941406 180.640625 552.660156 176.082031" fill="#b1ecff"/></g><g id="change5_5"><path d="M 450.941406 488.480469 C 441.089844 493.140625 431.019531 492.511719 428.449219 487.078125 C 425.875 481.644531 431.777344 473.457031 441.628906 468.796875 C 451.480469 464.136719 461.550781 464.765625 464.121094 470.199219 C 466.691406 475.632812 460.792969 483.816406 450.941406 488.480469" fill="#b1ecff"/></g><g id="change5_6"><path d="M 155.144531 327.996094 C 154.15625 311.394531 160.78125 297.5 169.941406 296.953125 C 179.097656 296.410156 187.324219 309.425781 188.308594 326.023438 C 189.296875 342.625 182.671875 356.519531 173.511719 357.066406 C 164.355469 357.609375 156.132812 344.59375 155.144531 327.996094" fill="#b1ecff"/></g><g id="change5_7"><path d="M 180.699219 255.523438 C 187.257812 245.289062 197.152344 239.925781 202.796875 243.546875 C 208.441406 247.164062 207.703125 258.390625 201.144531 268.625 C 194.589844 278.859375 184.695312 284.222656 179.050781 280.605469 C 173.402344 276.984375 174.140625 265.757812 180.699219 255.523438" fill="#b1ecff"/></g><g id="change5_8"><path d="M 450.6875 453.597656 C 446.101562 458.804688 440.058594 460.976562 437.183594 458.445312 C 434.3125 455.917969 435.699219 449.648438 440.285156 444.441406 C 444.867188 439.230469 450.914062 437.0625 453.785156 439.589844 C 456.660156 442.121094 455.269531 448.390625 450.6875 453.597656" fill="#b1ecff"/></g><g id="change2_8"><path d="M 301.71875 393.800781 C 300.039062 397.988281 297.304688 402.707031 292.808594 403.023438 C 289.242188 403.296875 286.175781 400.632812 283.6875 398.046875 C 278.164062 392.359375 273.042969 386.226562 268.445312 379.761719 C 269.53125 379.132812 270.652344 378.566406 271.789062 378.03125 C 274.304688 376.855469 276.855469 375.902344 279.394531 375.152344 C 288.761719 372.328125 298.261719 372.007812 307.945312 371.929688 C 306.597656 379.410156 304.507812 386.742188 301.71875 393.800781" fill="#fff"/></g><g id="change2_9"><path d="M 395.898438 399.726562 C 391.53125 403.046875 387.003906 406.128906 382.347656 408.964844 C 379.300781 410.835938 375.664062 412.65625 372.285156 411.492188 C 368 410.042969 366.523438 404.816406 365.96875 400.320312 C 365.035156 392.855469 364.835938 385.304688 365.410156 377.789062 C 369.167969 379.253906 372.824219 380.949219 376.289062 382.925781 C 377.160156 383.40625 378.023438 383.914062 378.855469 384.4375 C 385.34375 388.460938 391.222656 393.679688 395.898438 399.726562" fill="#fff"/></g><g clip-path="url(#b)" id="change6_1"><path d="M 199.144531 615.378906 C 192.125 615.378906 185.007812 613.367188 178.6875 609.125 C 168.265625 602.121094 162.554688 590.355469 162.558594 578.4375 C 162.5625 571.972656 164.246094 565.46875 167.773438 559.648438 C 171.203125 553.96875 175.933594 549.5625 181.355469 546.550781 C 186.769531 543.558594 192.875 541.960938 199.0625 541.9375 C 199.0625 541.9375 227.929688 539.542969 230.046875 514.578125 C 220.367188 508.375 211.3125 501.425781 203.003906 493.769531 C 236.015625 506.613281 270.851562 515.191406 306.191406 515.191406 C 306.796875 515.191406 307.402344 515.191406 308.011719 515.1875 C 350.03125 514.847656 392.878906 501.359375 423.675781 472.761719 C 428.5 468.277344 432.980469 463.476562 437.15625 458.421875 C 437.164062 458.429688 437.175781 458.4375 437.183594 458.445312 C 438 459.164062 439.066406 459.503906 440.285156 459.503906 C 443.363281 459.503906 447.402344 457.328125 450.6875 453.597656 C 455.269531 448.390625 456.660156 442.121094 453.785156 439.589844 C 453.117188 439.003906 452.28125 438.667969 451.328125 438.566406 C 459.21875 425.847656 465.753906 412.191406 471.355469 398.316406 C 484.441406 365.921875 492.9375 331.460938 493.699219 296.535156 C 494.40625 264.371094 488.359375 231.789062 474.316406 202.910156 C 483.355469 211.5 491.542969 220.875 498.757812 230.9375 C 513.671875 228.960938 520.015625 217.492188 522.699219 208.933594 C 524.394531 203.523438 524.632812 199.25 524.632812 199.25 C 524.628906 198.960938 524.621094 198.671875 524.621094 198.382812 C 524.621094 186.335938 530.527344 174.507812 541.421875 167.492188 C 547.578125 163.507812 554.484375 161.605469 561.308594 161.605469 C 573.890625 161.605469 586.207031 168.066406 593.101562 179.863281 C 596.40625 185.554688 597.980469 191.855469 597.976562 198.105469 C 597.972656 210.246094 592.027344 222.203125 581.292969 229.15625 C 575.136719 233.144531 568.222656 235.054688 561.390625 235.054688 C 557.644531 235.054688 553.921875 234.480469 550.359375 233.363281 C 548.667969 232.835938 547.011719 232.183594 545.417969 231.421875 C 545.417969 231.421875 538.859375 228.886719 530.671875 228.886719 C 522.417969 228.886719 512.507812 231.464844 506.003906 241.820312 C 513.023438 253.082031 518.976562 265 523.636719 277.457031 C 524.578125 279.953125 526.839844 281.683594 529.484375 281.933594 C 529.738281 281.960938 530.015625 281.996094 530.273438 282 C 530.949219 282.035156 531.625 282.050781 532.300781 282.050781 C 533.683594 282.050781 535.070312 281.988281 536.453125 281.925781 C 537.839844 281.863281 539.222656 281.804688 540.601562 281.804688 C 542.039062 281.804688 543.46875 281.871094 544.886719 282.074219 L 544.988281 282.082031 C 548.0625 282.542969 549.871094 285.144531 549.875 287.796875 C 549.875 289.4375 549.179688 291.105469 547.65625 292.289062 L 547.59375 292.320312 C 543.71875 295.324219 538.992188 296.957031 534.875 299.570312 L 534.835938 299.609375 C 532.96875 300.816406 531.886719 302.871094 531.886719 305.050781 C 531.886719 305.515625 531.933594 305.984375 532.035156 306.453125 C 533.519531 313.492188 534.605469 320.640625 535.320312 327.882812 C 535.496094 329.664062 536.632812 331.222656 538.332031 331.808594 C 538.492188 331.886719 538.636719 331.929688 538.800781 331.980469 C 546.019531 334.347656 553.78125 334.976562 560.765625 338.003906 L 560.886719 338.039062 C 564.449219 339.597656 566.230469 342.898438 566.234375 346.203125 C 566.242188 349.5625 564.414062 352.921875 560.761719 354.46875 L 560.671875 354.519531 C 553.65625 357.425781 545.894531 357.976562 538.632812 360.257812 L 538.601562 360.273438 C 536.855469 360.828125 535.667969 362.367188 535.496094 364.171875 C 534.589844 374.828125 532.8125 385.507812 530.097656 396.175781 C 535.191406 400.886719 540.605469 403.839844 546.015625 405.535156 C 550.332031 406.890625 554.65625 407.441406 558.839844 407.441406 C 577.328125 407.441406 593.019531 396.652344 593.019531 396.652344 C 603.21875 388.40625 616.0625 383.765625 629.378906 383.765625 C 636.847656 383.765625 644.460938 385.226562 651.84375 388.328125 C 673.539062 397.449219 687.113281 419.011719 687.121094 441.710938 C 687.125 446.917969 686.414062 452.183594 684.925781 457.371094 C 677.558594 483.0625 654.28125 499.300781 629.375 499.300781 C 622.960938 499.300781 616.4375 498.226562 610.046875 495.953125 C 600.226562 492.457031 591.933594 486.585938 585.582031 479.199219 C 579.253906 471.824219 574.867188 462.9375 572.851562 453.402344 C 572.851562 453.402344 561.242188 414.019531 526.609375 414.019531 C 525.945312 414.019531 525.277344 414.03125 524.597656 414.0625 C 518.476562 431.257812 510.195312 447.066406 500.15625 461.382812 C 499.175781 462.78125 498.628906 464.445312 498.628906 466.121094 C 498.632812 466.9375 498.761719 467.757812 499.039062 468.546875 C 499.53125 469.90625 500.113281 471.214844 500.738281 472.484375 C 504.25 479.316406 509.367188 485.292969 512.238281 492.425781 L 512.28125 492.542969 C 512.738281 493.683594 512.949219 494.824219 512.949219 495.925781 C 512.957031 500.816406 508.832031 504.925781 503.9375 504.925781 C 502.832031 504.925781 501.6875 504.714844 500.546875 504.261719 L 500.433594 504.199219 C 493.324219 501.316406 487.339844 496.191406 480.511719 492.664062 L 480.46875 492.628906 C 479.394531 492.078125 478.234375 491.820312 477.074219 491.820312 C 475.050781 491.820312 473.027344 492.609375 471.472656 494.023438 C 457.214844 507.015625 441.160156 517.800781 423.914062 526.140625 C 423.894531 526.5 423.886719 526.855469 423.886719 527.207031 C 423.898438 541.210938 437.691406 546.507812 441.503906 547.703125 C 442.101562 547.890625 442.464844 547.976562 442.464844 547.976562 C 451.007812 549.371094 458.6875 555.023438 462.21875 563.644531 C 463.53125 566.847656 464.15625 570.15625 464.15625 573.414062 C 464.164062 584.472656 457.003906 594.90625 445.378906 598.242188 C 443.09375 598.902344 440.761719 599.21875 438.449219 599.21875 C 429.1875 599.21875 420.242188 594.148438 415.726562 585.753906 C 413.59375 581.789062 412.597656 577.5625 412.601562 573.429688 C 412.601562 570.800781 413.007812 568.207031 413.777344 565.742188 C 414.628906 563.027344 415.894531 560.492188 417.585938 558.191406 C 417.585938 558.191406 421.675781 551.582031 421.675781 543.792969 C 421.675781 539.195312 420.253906 534.1875 415.722656 529.882812 C 394.058594 539.195312 370.6875 544.671875 346.671875 545.785156 C 343.105469 545.976562 339.824219 548.167969 338.75 551.601562 L 338.734375 551.652344 C 337.480469 555.8125 337.191406 560.25 335.5625 564.269531 L 335.539062 564.34375 C 334.671875 566.441406 332.746094 567.5 330.820312 567.5 C 328.941406 567.5 327.058594 566.492188 326.15625 564.464844 L 326.148438 564.410156 C 324.378906 560.449219 323.988281 556.011719 322.578125 551.902344 C 322.269531 550.96875 321.882812 550.035156 321.398438 549.148438 C 320.089844 546.644531 317.550781 545.0625 314.746094 544.734375 C 302.464844 543.320312 290.132812 540.738281 277.902344 536.90625 C 265.171875 532.914062 253.121094 527.75 241.851562 521.601562 C 235.398438 525.652344 231.933594 530.953125 230.234375 536.367188 C 229.214844 539.628906 228.835938 542.933594 228.835938 546.027344 C 228.832031 554.71875 231.800781 561.78125 231.800781 561.78125 C 234.488281 567 235.898438 572.800781 235.902344 578.664062 C 235.90625 585.160156 234.1875 591.734375 230.574219 597.6875 C 223.675781 609.085938 211.558594 615.378906 199.144531 615.378906 M 454.355469 465.675781 C 450.535156 465.675781 446.058594 466.699219 441.628906 468.796875 C 431.777344 473.457031 425.875 481.644531 428.449219 487.078125 C 429.863281 490.066406 433.546875 491.601562 438.214844 491.601562 C 442.03125 491.601562 446.507812 490.574219 450.941406 488.480469 C 460.792969 483.816406 466.691406 475.632812 464.121094 470.199219 C 462.707031 467.210938 459.023438 465.675781 454.355469 465.675781 M 486.324219 410.945312 C 478.984375 410.945312 470.574219 419.890625 466.5625 432.585938 C 462.066406 446.804688 464.78125 460.335938 472.621094 462.816406 C 473.460938 463.082031 474.324219 463.210938 475.203125 463.210938 C 482.539062 463.210938 490.949219 454.265625 494.964844 441.566406 C 499.460938 427.351562 496.746094 413.816406 488.902344 411.339844 C 488.0625 411.074219 487.199219 410.945312 486.324219 410.945312 M 564.761719 172.792969 C 561.160156 172.792969 556.863281 173.882812 552.660156 176.082031 C 543.941406 180.640625 538.910156 188.234375 541.425781 193.042969 C 542.726562 195.53125 545.796875 196.789062 549.664062 196.789062 C 553.265625 196.789062 557.5625 195.699219 561.765625 193.5 C 570.484375 188.941406 575.511719 181.347656 572.996094 176.539062 C 571.695312 174.050781 568.628906 172.792969 564.761719 172.792969" fill="#2eb2e9"/></g><g id="change7_1"><path d="M 475.203125 463.210938 C 474.324219 463.210938 473.460938 463.082031 472.621094 462.816406 C 464.78125 460.335938 462.066406 446.804688 466.5625 432.585938 C 470.574219 419.890625 478.984375 410.945312 486.324219 410.945312 C 487.199219 410.945312 488.0625 411.074219 488.902344 411.339844 C 496.746094 413.816406 499.460938 427.351562 494.964844 441.566406 C 490.949219 454.265625 482.539062 463.210938 475.203125 463.210938" fill="#60c7ef"/></g><g id="change7_2"><path d="M 549.664062 196.789062 C 545.796875 196.789062 542.726562 195.53125 541.425781 193.042969 C 538.910156 188.234375 543.941406 180.640625 552.660156 176.082031 C 556.863281 173.882812 561.160156 172.792969 564.761719 172.792969 C 568.628906 172.792969 571.695312 174.050781 572.996094 176.539062 C 575.511719 181.347656 570.484375 188.941406 561.765625 193.5 C 557.5625 195.699219 553.265625 196.789062 549.664062 196.789062" fill="#60c7ef"/></g><g id="change7_3"><path d="M 438.214844 491.601562 C 433.546875 491.601562 429.863281 490.066406 428.449219 487.078125 C 425.875 481.644531 431.777344 473.457031 441.628906 468.796875 C 446.058594 466.699219 450.535156 465.675781 454.355469 465.675781 C 459.023438 465.675781 462.707031 467.210938 464.121094 470.199219 C 466.691406 475.632812 460.792969 483.816406 450.941406 488.480469 C 446.507812 490.574219 442.03125 491.601562 438.214844 491.601562" fill="#60c7ef"/></g><g id="change7_4"><path d="M 440.285156 459.503906 C 439.066406 459.503906 438 459.164062 437.183594 458.445312 C 437.175781 458.4375 437.164062 458.429688 437.15625 458.421875 C 442.328125 452.15625 447.027344 445.503906 451.328125 438.566406 C 452.28125 438.667969 453.117188 439.003906 453.785156 439.589844 C 456.660156 442.121094 455.269531 448.390625 450.6875 453.597656 C 447.402344 457.328125 443.363281 459.503906 440.285156 459.503906" fill="#60c7ef"/></g></g></svg>