<?xml version="1.0" encoding="UTF-8" standalone="no"?><svg xmlns="http://www.w3.org/2000/svg" xmlns:xlink="http://www.w3.org/1999/xlink" fill="#000000" height="369.1" preserveAspectRatio="xMidYMid meet" version="1" viewBox="-54.1 -54.0 369.1 369.1" width="369.1" zoomAndPan="magnify"><g data-name="Layer 2"><g data-name="Layer 1"><g id="change1_1"><path d="M130.52,0h0A130.52,130.52,0,0,1,261,130.52V261a0,0,0,0,1,0,0H130.52A130.52,130.52,0,0,1,0,130.52v0A130.52,130.52,0,0,1,130.52,0Z" fill="#64a3cb" transform="rotate(-45 130.522 130.516)"/></g><g id="change2_1"><circle cx="126.52" cy="137.13" fill="#feffff" r="92.2"/></g><g id="change3_1"><circle cx="130.52" cy="130.52" fill="#feffff" r="92.2"/></g><g id="change1_2"><path d="M99,167.68c8.1-9.81,23.55-29.93,31.77-40.84,3.8-4.67,6.25-9.45,6.25-13.62,0-5.52-4.17-11.16-13-11.16-5.89,0-10.91,4.17-13.73,7.24a2.24,2.24,0,0,1-3.32,0l-5.88-5.89a2.41,2.41,0,0,1-.13-3.19s9.57-12,24.17-12c17.54,0,27.35,11.16,27.35,24.41,0,8-3.44,13-8.22,19.87-5.27,7.48-14.6,19-21.1,27.23h26.5A2.41,2.41,0,0,1,152,162v8.46a2.41,2.41,0,0,1-2.33,2.33H101.3A2.33,2.33,0,0,1,99,170.5Z" fill="#64a3cb"/></g></g></g></svg>