<?xml version="1.0" encoding="UTF-8" standalone="no"?><svg xmlns="http://www.w3.org/2000/svg" xmlns:xlink="http://www.w3.org/1999/xlink" fill="#000000" height="369.1" preserveAspectRatio="xMidYMid meet" version="1" viewBox="-54.1 -54.0 369.1 369.1" width="369.1" zoomAndPan="magnify"><g data-name="Layer 2"><g data-name="Layer 1"><g id="change1_1"><path d="M130.52,0h0A130.52,130.52,0,0,1,261,130.52V261a0,0,0,0,1,0,0H130.52A130.52,130.52,0,0,1,0,130.52v0A130.52,130.52,0,0,1,130.52,0Z" fill="#64a3cb" transform="rotate(-45 130.522 130.516)"/></g><g id="change2_1"><circle cx="126.52" cy="137.13" fill="#feffff" r="92.2"/></g><g id="change3_1"><circle cx="130.52" cy="130.52" fill="#feffff" r="92.2"/></g><g id="change1_2"><path d="M101.55,162.48l6.13-6a2.11,2.11,0,0,1,2.95-.12c.49.49,7.6,6.87,15.82,6.87a14.22,14.22,0,0,0,14.23-14.48c0-7.6-5.15-13.73-14.84-13.73H107c-2.46,0-3.8-2.33-3.8-4.3V94.53a2.33,2.33,0,0,1,2.33-2.33h38.75a2.33,2.33,0,0,1,2.33,2.33v8.34a2.33,2.33,0,0,1-2.33,2.33H117v16.31h10.54c17.42,0,28.09,11.17,28.09,27.23,0,15.33-12.75,28.09-29.68,28.09-13.13,0-21.1-6.5-24.16-10.18C100.2,164.81,100.08,164,101.55,162.48Z" fill="#64a3cb"/></g></g></g></svg>