<?xml version="1.0" encoding="UTF-8" standalone="no"?><svg xmlns="http://www.w3.org/2000/svg" xmlns:xlink="http://www.w3.org/1999/xlink" fill="#000000" height="369.1" preserveAspectRatio="xMidYMid meet" version="1" viewBox="-54.1 -54.0 369.1 369.1" width="369.1" zoomAndPan="magnify"><g data-name="Layer 2"><g data-name="Layer 1"><g id="change1_1"><path d="M130.52,0h0A130.52,130.52,0,0,1,261,130.52V261a0,0,0,0,1,0,0H130.52A130.52,130.52,0,0,1,0,130.52v0A130.52,130.52,0,0,1,130.52,0Z" fill="#64a3cb" transform="rotate(-45 130.522 130.516)"/></g><g id="change2_1"><circle cx="126.52" cy="137.13" fill="#ffffff" r="92.2"/></g><g id="change3_1"><circle cx="130.52" cy="130.52" fill="#feffff" r="92.2"/></g><g id="change1_2"><path d="M104,159.46l6.26-6a2.1,2.1,0,0,1,3.19,0c.37.49,7.6,6.62,15.08,6.62,6.63,0,13-4.78,13-11.52,0-6.38-5.89-12.15-16.93-12.15h-6.87a2.29,2.29,0,0,1-2.33-2.45v-7.73a2.17,2.17,0,0,1,2.33-2.45h6.87c10.06,0,15.21-5,15.21-11.28,0-6.75-5.64-11.29-11.9-11.29a15.9,15.9,0,0,0-12.39,5.89,2.23,2.23,0,0,1-3.31.12l-6-5.64a2.19,2.19,0,0,1,0-3.19s9.32-10.79,23.06-10.79c14.23,0,26.13,8.7,26.13,22.44,0,9.45-7.12,16.56-12.64,19.14v.36c5.77,2.46,14.84,9.08,14.84,20,0,13.86-11.28,23.91-28.21,23.91-15.33,0-22.81-7.72-25.51-10.91A2.43,2.43,0,0,1,104,159.46Z" fill="#64a3cb"/></g></g></g></svg>