<?xml version="1.0" encoding="UTF-8" standalone="no"?><svg xmlns="http://www.w3.org/2000/svg" xmlns:xlink="http://www.w3.org/1999/xlink" fill="#000000" height="369.1" preserveAspectRatio="xMidYMid meet" version="1" viewBox="-54.1 -54.0 369.1 369.1" width="369.1" zoomAndPan="magnify"><g data-name="Layer 2"><g data-name="Layer 1"><g id="change1_1"><path d="M130.52,0h0A130.52,130.52,0,0,1,261,130.52V261a0,0,0,0,1,0,0H130.52A130.52,130.52,0,0,1,0,130.52v0A130.52,130.52,0,0,1,130.52,0Z" fill="#64a3cb" transform="rotate(-45 130.522 130.516)"/></g><g id="change2_1"><circle cx="126.52" cy="137.13" fill="#feffff" r="92.2"/></g><g id="change3_1"><circle cx="130.52" cy="130.52" fill="#feffff" r="92.2"/></g><g id="change1_2"><path d="M93,152.78V142.6l44.15-53.73a2.62,2.62,0,0,1,1.84-.73h6.63a2.33,2.33,0,0,1,2.33,2.33v52.25h9.81a2.23,2.23,0,0,1,2.33,2.21v7.6a2.33,2.33,0,0,1-2.33,2.33h-9.81l.12,15.7a2.41,2.41,0,0,1-2.33,2.33H135.53a2.41,2.41,0,0,1-2.33-2.33V155.11H95.3A2.33,2.33,0,0,1,93,152.78Zm40.72-10.43V112.91l-24.53,29.44Z" fill="#64a3cb"/></g></g></g></svg>