<?xml version="1.0" encoding="UTF-8" standalone="no"?><svg xmlns="http://www.w3.org/2000/svg" xmlns:xlink="http://www.w3.org/1999/xlink" fill="#000000" height="369.1" preserveAspectRatio="xMidYMid meet" version="1" viewBox="-54.1 -54.0 369.1 369.1" width="369.1" zoomAndPan="magnify"><g data-name="Layer 2"><g data-name="Layer 1"><g id="change1_1"><path d="M130.52,0h0A130.52,130.52,0,0,1,261,130.52V261a0,0,0,0,1,0,0H130.52A130.52,130.52,0,0,1,0,130.52v0A130.52,130.52,0,0,1,130.52,0Z" fill="#64a3cb" transform="rotate(-45 130.522 130.516)"/></g><g id="change2_1"><circle cx="126.52" cy="137.13" fill="#feffff" r="92.2"/></g><g id="change3_1"><circle cx="130.52" cy="130.52" fill="#feffff" r="92.2"/></g><g id="change1_2"><path d="M123.28,111.14l-10.79,2.33a2,2,0,0,1-2.45-1.6l-.74-6a2.52,2.52,0,0,1,.62-2.21l17.66-14.84h8.58a2.31,2.31,0,0,1,2.21,2.33v78.75a2.31,2.31,0,0,1-2.21,2.33H125.61a2.34,2.34,0,0,1-2.33-2.33Z" fill="#64a3cb"/></g></g></g></svg>