<?xml version="1.0" encoding="UTF-8"?><svg xmlns="http://www.w3.org/2000/svg" xmlns:xlink="http://www.w3.org/1999/xlink" height="394.3" preserveAspectRatio="xMidYMid meet" version="1.0" viewBox="0.0 0.0 394.3 394.3" width="394.3" zoomAndPan="magnify"><g data-name="Layer 2"><g data-name="Layer 2" id="change1_1"><path d="M394.32,194.1h-37C356,107.83,286.37,37.84,200.22,36V0H193.1V36C107,37.84,37.31,107.83,36,194.1H0v7.12H36c2.41,85.33,71.64,154.23,157.1,156.1v37h7.12v-37c85.46-1.87,154.7-70.77,157.1-156.1h37Zm-44.09,0h-26a128.13,128.13,0,0,0-124-124.85V43.08C282.44,45,348.89,111.76,350.23,194.1Zm-27.63,7.12A126.56,126.56,0,0,1,200.22,323.5V310H193.1v13.51A126.57,126.57,0,0,1,69.93,201.22H84.3V194.1H69.9A126.55,126.55,0,0,1,193.1,70.8V84.3h7.12V70.82A126.56,126.56,0,0,1,322.63,194.1H310v7.12ZM193.1,43.08V69.23A128.13,128.13,0,0,0,68.33,194.1H43.09C44.44,111.76,110.89,45,193.1,43.08Zm-150,158.14H68.36A128.13,128.13,0,0,0,193.1,325.09V350.2C111.57,348.33,45.53,282.62,43.13,201.22Zm157.09,149V325.07a128.14,128.14,0,0,0,124-123.85h26C347.79,282.62,281.76,348.33,200.22,350.2Zm-3-153.14h20.27v1H197.2V216.9h-1V198.08H177.8v-1h18.38V179.23h1Z" fill="#be1e2d"/></g></g></svg>