<?xml version="1.0" encoding="UTF-8" standalone="no"?><svg xmlns="http://www.w3.org/2000/svg" xmlns:xlink="http://www.w3.org/1999/xlink" fill="#ffffff" height="140.2" preserveAspectRatio="xMidYMid meet" version="1" viewBox="24.3 28.3 160.2 140.2" width="160.2" zoomAndPan="magnify"><g id="change1_1"><path d="M83.1,136c-7.4,10.3-23.1,3.4-19.9-9.8c-17.2,7.8-30-3-22.1-19.9c-16.8-6.7-13.6-26.9-1.3-31.6c-4-7,0.4-19.6,12.4-15.4 c-1.5-27.6,26.6-22.2,34.6-15.5c5-15.5,25.2-15.2,31-0.8c16.5-13.9,38.6-0.6,30.9,21.6c11.3-1.4,21,9.2,10.3,24.4 c25.5,14.7,2.9,38.8-12.1,31.6c4.5,14.3-12.6,22.8-23.2,12.5C119.7,154.3,88,154.9,83.1,136z"/></g><g id="change1_2"><path d="M58.4,142.2c-7.5-1.5-13.1,1.6-11.8,8.2c1.3,6.7,6.4,9.6,13,8.7C66.3,158.1,71.1,144.7,58.4,142.2z"/></g><g id="change1_3"><path d="M40.2,158c-3.9-0.8-7.1,1.8-6.4,5.2c0.7,3.5,4.2,5.3,7.7,4.3C44.8,166.5,46.8,159.3,40.2,158z"/></g></svg>