<?xml version="1.0" encoding="utf-8"?>
<!-- Generator: Adobe Illustrator 23.0.0, SVG Export Plug-In . SVG Version: 6.00 Build 0)  -->
<svg version="1.1" id="Layer_1" xmlns="http://www.w3.org/2000/svg" xmlns:xlink="http://www.w3.org/1999/xlink" x="0px" y="0px"
	 width="72.5px" height="44.3px" viewBox="0 0 72.5 44.3" style="enable-background:new 0 0 72.5 44.3;" xml:space="preserve">
<style type="text/css">
	.st0{fill:#29ABE2;}
</style>
<path d="M7,22.8l-0.9,1.4l-5.7,1.3h7.4l8.9-12.6l13,12.6L17,7.8L7,22.8z M61,22.8l-2.4-3v-9.6L53,7l0.2,5.9L43.5,0L30.1,25.3
	l0.1,0.2L43.4,4.6l16.1,20.8h13L61,22.8z"/>
<path class="st0" d="M39.9,16.3l0,3.5l4.5,0l0-6.1C42.6,13.8,40.3,14.8,39.9,16.3 M45,13.7l0,6.1l4.5,0l0-3.5
	C49.2,14.9,47.1,13.9,45,13.7 M39.9,22.1l0,3.4l4.5,0l0-4.7l-4.5,0L39.9,22.1z M44.9,25.6l4.5,0l0-3.4l0-1.3l-4.5,0L44.9,25.6z
	 M14.2,18.8l0,2.5l3.3,0l0-4.4C16.2,17,14.5,17.7,14.2,18.8 M17.9,17l0,4.4l3.3,0l0-2.5C21,17.8,19.5,17.1,17.9,17 M14.2,23l0,2.5
	l3.3,0l0-3.4l-3.3,0V23z M17.9,25.5l3.3,0l0-2.5v-0.9l-3.3,0L17.9,25.5z M28.9,13.6L17.8,8.2l11.4,15.4L28.9,13.6z M29.5,13.7
	l0.2,10.1L42.5,0.6L29.5,13.7z"/>
<path d="M8.3,39.8H62v0.8H8.3L8.3,39.8z M12.4,28.9c-0.1,0.1-0.2,0.2-0.3,0.3c0,0-0.1,0.2-0.3,0.3c-0.1-0.1-0.2-0.2-0.4-0.2
	c-0.2,0-0.5,0.3-0.7,0.8c-0.1,0.4-0.3,0.8-0.4,1.2c-0.2,0.5-0.5,1.1-0.7,1.6C9.1,33.6,9,34.2,9,34.6c0,0.2,0,0.4,0.1,0.6
	c0.3-0.2,0.6-0.5,0.8-0.9c0.1-0.1,0.2-0.5,0.4-1.1c0.1-0.3,0.2-0.5,0.4-0.8c0.1-0.2,0.3-0.5,0.5-0.8c0.1-0.2,0.3-0.4,0.4-0.7
	c0.2-0.3,0.4-0.5,0.5-0.7c0.1,0.3,0.1,0.5,0.1,0.8c0,0.2,0,0.6,0,1.2v0.3c0,0.4,0,0.8,0,1.2c0,0.3,0.1,0.7,0.1,1
	c0.3,0,0.6-0.2,0.9-0.6c0.1-0.2,0.4-0.5,0.7-0.9c0.2-0.3,0.5-0.6,0.8-1c0.2-0.3,0.5-0.7,0.8-1c0,0.3,0,0.7-0.2,1.2
	c-0.1,0.5-0.2,0.9-0.3,1.4c-0.1,0.5-0.2,0.9-0.2,1.2c0,0.2,0,0.4,0,0.6c0,0.2,0.1,0.4,0.2,0.5c0.3-0.3,0.5-0.8,0.6-1.5
	c0.1-0.6,0.2-1.2,0.3-1.7c0.1-0.4,0.2-0.9,0.3-1.4c0.1-0.5,0.1-0.9,0.1-1.3c0-0.3,0-0.6-0.1-0.8c-0.3,0-0.5,0.3-0.8,0.6
	c-0.2,0.3-0.4,0.6-0.6,1c-0.4,0.7-0.7,1.1-0.8,1.2c-0.3,0.4-0.7,0.8-1,1c0-0.8,0-1.4,0-1.8c0-0.4,0-0.9-0.1-1.3
	c0-0.2-0.1-0.4-0.1-0.5c-0.1-0.2-0.2-0.4-0.3-0.4L12.4,28.9L12.4,28.9z"/>
<path class="st0" d="M19,30.8c0.5-0.5,1.1-0.8,1.6-0.8c0.2,0,0.4,0,0.6,0.1c0.2,0.1,0.4,0.1,0.6,0.3c0.3,0.2,0.6,0.5,0.7,0.8
	c0.2,0.3,0.3,0.6,0.3,1c0,0.1,0,0.2,0,0.3c-0.1,0.5-0.5,1-1.2,1.4c-0.7,0.4-1.3,0.6-1.9,0.6c-0.6,0-1-0.1-1.3-0.3
	c-0.3-0.2-0.4-0.5-0.4-0.9c0-0.2,0-0.4,0.1-0.7C18.2,31.8,18.6,31.2,19,30.8L19,30.8z M20.7,29.3c-0.5,0-1.1,0.2-1.6,0.5
	c-0.5,0.3-0.9,0.8-1.3,1.4c-0.4,0.7-0.6,1.3-0.6,1.9c0,0.3,0,0.5,0.2,0.8c0.1,0.2,0.3,0.4,0.5,0.6c0.2,0.1,0.5,0.3,0.7,0.3
	c0.2,0.1,0.5,0.1,0.7,0.1c0.4,0,0.9-0.1,1.4-0.3c0.4-0.1,0.8-0.3,1.3-0.6c0.4-0.2,0.7-0.5,1-0.9c0.2-0.3,0.3-0.7,0.3-1.2
	c0-0.4-0.1-0.9-0.3-1.3c-0.2-0.4-0.5-0.8-0.9-1C21.6,29.4,21.2,29.3,20.7,29.3L20.7,29.3z"/>
<path d="M24.8,33c-0.3,0.6-0.5,1.2-0.5,1.6c0,0.2,0,0.3,0,0.5c0.3-0.1,0.6-0.4,0.7-1.1c0.2-0.6,0.4-1,0.8-1.2
	c0.2-0.1,0.5-0.2,0.8-0.2s0.6-0.1,1-0.1c0.3,0,0.6,0,0.8,0.1c-0.1,0.4-0.3,0.8-0.4,1.2c-0.2,0.5-0.2,0.9-0.2,1.2c0,0,0.1,0,0.2,0
	c0,0,0.1,0,0.2,0c0.2-0.4,0.3-0.7,0.5-1.1c0.2-0.4,0.3-0.8,0.4-1.1c0.1-0.4,0.2-0.8,0.3-1.1c0,0,0.1-0.4,0.3-1.2
	c0.1-0.3,0.1-0.5,0.1-0.7c0-0.1,0-0.3,0-0.4h-0.4c0,0.3-0.1,0.7-0.1,1.1c-0.1,0.8-0.4,1.3-0.8,1.4c-0.1,0-0.6,0.1-1.4,0.2
	c-0.3,0-0.6,0.1-0.9,0.1c0-0.1,0-0.1,0-0.2c0-0.2,0.1-0.6,0.3-1.1c0.2-0.4,0.3-0.8,0.3-1c0-0.1,0-0.2,0-0.2c0-0.1,0-0.1-0.1-0.2
	c-0.4,0.2-0.7,0.7-1,1.6c-0.2,0.6-0.3,1-0.4,1.1C25.1,32.4,24.9,32.7,24.8,33L24.8,33z"/>
<path class="st0" d="M33.3,29.1c-0.3,0.4-0.5,0.8-0.8,1.3c-0.2,0.4-0.4,0.9-0.6,1.4c-0.1,0.4-0.3,0.8-0.5,1.4
	c-0.2,0.3-0.4,0.6-0.5,1c-0.1,0.3-0.2,0.5-0.2,0.6c0,0.1,0,0.1,0.1,0.2c0,0.1,0.1,0.1,0.2,0.1c0.2,0,0.5-0.2,0.7-0.6
	c0.1-0.2,0.2-0.5,0.3-1c0.1-0.4,0.3-0.8,0.6-1.4c0.4-0.8,0.7-1.2,0.8-1.4c0.2-0.5,0.4-1,0.4-1.5h-0.2L33.3,29.1z M34.4,30.5
	c0.1,0.4,0.2,0.7,0.3,1.1c0.1,0.3,0.2,0.7,0.3,1.1c-0.8,0.2-1.3,0.3-1.3,0.3c-0.5,0.1-1,0.1-1.4,0.1c0,0.2,0.1,0.4,0.2,0.5
	c0.1,0.1,0.3,0.1,0.5,0.1c0.2,0,0.4,0,0.6-0.1c0.3,0,0.6-0.1,1-0.2h0.1c0.3,0,0.5,0.2,0.6,0.7c0,0.2,0.1,0.6,0.1,1.1
	c0.1,0,0.2,0,0.4-0.1c0.1,0,0.2,0,0.2,0c0-0.1,0-0.4-0.1-0.9c0-0.2-0.1-0.4-0.1-0.5c0-0.3,0.2-0.5,0.5-0.6c0.3-0.1,0.5-0.2,0.8-0.3
	c-0.1-0.1-0.1-0.3-0.2-0.3c-0.1-0.1-0.2-0.1-0.3-0.1c0,0-0.2,0-0.4,0c-0.1,0-0.1,0-0.2,0c-0.1,0-0.2,0-0.2-0.1s-0.1-0.1-0.2-0.2
	c-0.1-0.3-0.2-0.6-0.4-1c-0.1-0.4-0.2-0.7-0.3-1.1c-0.2-0.7-0.3-1.1-0.3-1.1c-0.2-0.5-0.4-0.8-0.6-0.8c-0.1,0-0.2,0-0.3,0.1
	c0,0-0.1,0.1-0.1,0.2c0,0.1,0,0.2,0.1,0.3c0.1,0.1,0.1,0.3,0.2,0.5C34.2,29.8,34.3,30.1,34.4,30.5L34.4,30.5z"/>
<path d="M41.6,28.9c-0.1,0.1-0.2,0.2-0.3,0.3c0,0-0.1,0.2-0.3,0.3c-0.1-0.1-0.2-0.2-0.4-0.2c-0.2,0-0.5,0.3-0.7,0.8
	c-0.1,0.4-0.3,0.8-0.4,1.2c-0.2,0.5-0.5,1.1-0.7,1.6c-0.3,0.7-0.5,1.3-0.5,1.7c0,0.2,0,0.4,0.1,0.6c0.3-0.2,0.6-0.5,0.8-0.9
	c0.1-0.1,0.2-0.5,0.4-1.1c0.1-0.3,0.2-0.5,0.4-0.8c0.1-0.2,0.3-0.5,0.5-0.8c0.1-0.2,0.3-0.4,0.4-0.7c0.2-0.3,0.4-0.5,0.5-0.7
	c0.1,0.3,0.1,0.5,0.1,0.8c0,0.2,0,0.6,0,1.2v0.3c0,0.4,0,0.8,0,1.2c0,0.3,0.1,0.7,0.1,1c0.3,0,0.6-0.2,0.9-0.6
	c0.1-0.2,0.4-0.5,0.7-0.9c0.2-0.3,0.5-0.6,0.8-1c0.2-0.3,0.5-0.7,0.8-1c0,0.3,0,0.7-0.2,1.2s-0.2,0.9-0.3,1.4
	c-0.1,0.5-0.2,0.9-0.2,1.2c0,0.2,0,0.4,0,0.6c0,0.2,0.1,0.4,0.2,0.5c0.3-0.3,0.5-0.8,0.6-1.5c0.1-0.6,0.2-1.2,0.3-1.7
	c0.1-0.4,0.2-0.9,0.3-1.4s0.1-0.9,0.1-1.3c0-0.3,0-0.6-0.1-0.8c-0.3,0-0.5,0.3-0.8,0.6c-0.2,0.3-0.4,0.6-0.6,1
	c-0.4,0.7-0.7,1.1-0.8,1.2c-0.3,0.4-0.7,0.8-1,1c0-0.8,0-1.4,0-1.8c0-0.4,0-0.9-0.1-1.3c0-0.2-0.1-0.4-0.1-0.5
	c-0.1-0.2-0.2-0.4-0.3-0.4L41.6,28.9L41.6,28.9z"/>
<path class="st0" d="M51.5,34.5c0.2,0.1,0.4,0.1,0.6,0.1c0.1,0,0.1,0,0.2,0c0-0.3-0.2-0.5-0.6-0.6c-0.2-0.1-0.6-0.1-1-0.1H50
	c-0.3,0-0.7,0-1.3,0.2c-0.6,0.1-1,0.2-1.2,0.2c0.2-0.5,0.4-0.9,0.7-1.4c0.1-0.3,0.3-0.4,0.6-0.5c0.3,0,0.6-0.1,0.8-0.1
	c0.3-0.1,0.8-0.1,1.4-0.2c0.6,0,1,0,1.1-0.1c0.5-0.1,0.9-0.2,1.2-0.3c-0.1-0.1-0.2-0.2-0.3-0.3s-0.3-0.1-0.5-0.1
	c-0.1,0-0.4,0-0.9,0.1c-0.2,0-0.4,0-0.5,0c-0.2,0-0.4,0-0.7,0c-0.6,0.1-0.9,0.1-1.1,0.1c-0.1,0-0.2,0-0.3,0c-0.1,0-0.2,0-0.3,0
	c0.4-0.7,0.7-1.3,1-1.5c0.4-0.4,1-0.6,1.7-0.7l1.6-0.1h0.2c0.2,0,0.3,0,0.6,0.1c0.2,0.1,0.4,0.1,0.5,0.1c0.1,0,0.2,0,0.4-0.1
	c-0.1-0.2-0.2-0.4-0.5-0.6c-0.2-0.1-0.5-0.1-0.9-0.1c-0.2,0-0.5,0-0.9,0.1c-0.4,0-0.8,0.1-1.4,0.2c-0.5,0.1-1,0.2-1.5,0.3
	c-0.3,0-0.5,0.2-0.6,0.4c-0.1,0.2-0.2,0.5-0.3,0.7c-0.5,1.2-1.1,2.3-1.6,3.5l-0.3,0.5c-0.1,0.1-0.1,0.2-0.1,0.3c0,0.1,0,0.2,0.1,0.3
	c0,0,0.1,0,0.2,0h0.4c0.2,0,0.4,0,0.7-0.1c0.7-0.2,1-0.3,1.1-0.3c0.2,0,0.5-0.1,0.7-0.1c0.5-0.1,0.9-0.1,1.2-0.1
	C51.1,34.4,51.3,34.4,51.5,34.5L51.5,34.5z"/>
<path d="M58,32.2c0.3,0,0.5,0,0.6-0.1c0-0.2-0.1-0.4-0.2-0.5s-0.2-0.1-0.3-0.1c-0.1,0-0.2,0-0.4,0.1c-0.2,0-0.3,0.1-0.4,0.1v-0.2
	c0.3-0.7,0.5-1.5,0.8-2.2c0-0.2,0.1-0.3,0.1-0.4c0-0.1,0.1-0.1,0.2-0.1c0,0,0.1,0,0.2,0c0.1,0,0.2,0,0.2,0.1
	c0.4,0.1,0.7,0.2,0.9,0.3c0.3,0.1,0.6,0.3,0.8,0.5c0.2,0.2,0.4,0.4,0.5,0.6c0.1,0.2,0.1,0.4,0.1,0.6c0,0.1,0,0.3-0.1,0.5
	c-0.1,0.3-0.3,0.7-0.5,1c-0.2,0.4-0.5,0.7-0.8,0.9c-0.3,0.2-0.7,0.5-1.2,0.7c-0.5,0.2-0.9,0.4-1.3,0.4c-0.1,0-0.2,0-0.3,0.1
	c0,0-0.1,0-0.1,0c0,0-0.1,0-0.1,0c0,0-0.1-0.1-0.2-0.2c-0.1-0.1-0.1-0.2-0.1-0.3c0-0.1,0-0.2,0-0.2c0-0.1,0-0.2,0.1-0.3
	c0.1-0.2,0.2-0.5,0.3-0.7c0.2-0.3,0.3-0.5,0.5-0.6C57.4,32.3,57.7,32.3,58,32.2L58,32.2z M55.9,28.1c0,0-0.4,0.1-1,0.2
	c-0.3,0-0.5,0.1-0.6,0.1c0,0.1,0,0.2,0.1,0.3c0,0.1,0.1,0.2,0.1,0.3c0.3-0.1,0.7-0.2,1-0.3c0.3,0,0.6-0.1,1-0.1c0.2,0,0.4,0,0.6,0
	c0.2,0,0.4,0,0.6,0.1c-0.2,0.3-0.3,0.6-0.5,1c-0.1,0.4-0.3,0.7-0.4,1.1c-0.1,0.4-0.3,0.6-0.4,0.7c-0.2,0.1-0.4,0.2-0.8,0.2
	c0,0,0,0.1,0,0.2c0,0.1,0,0.1-0.1,0.2c0,0,0.2,0,0.4,0.1c0.2,0,0.3,0.1,0.4,0.1c-0.2,0.4-0.3,0.8-0.5,1.2c-0.2,0.5-0.3,0.9-0.4,1.2
	c0,0.1,0,0.2,0,0.3c0,0.1,0,0.2,0.1,0.3c0,0.1,0.1,0.1,0.2,0.1c0.1,0,0.2,0,0.3,0c0,0,0.1,0,0.1-0.1c0-0.1,0.1-0.1,0.2-0.1l0.1,0.1
	v0.1l0.1-0.1h0.3c0,0,0.1,0,0.1,0c0.3-0.1,0.7-0.2,1.1-0.4c0.3-0.1,0.6-0.4,1.1-0.7c0.5-0.3,0.8-0.6,1-0.7c0.5-0.3,0.9-0.7,1.2-1.1
	c0.3-0.4,0.4-0.9,0.4-1.5c0-0.6-0.2-1.1-0.7-1.6c-0.4-0.5-1-0.8-1.6-0.9c-0.5-0.1-0.9-0.2-1.3-0.2c-0.4,0-0.8-0.1-1.3-0.1
	c-0.1,0-0.2,0-0.4,0c-0.2,0-0.3,0-0.4,0L55.9,28.1L55.9,28.1z"/>
</svg>
